<svg width="600" height="600" viewBox="0 0 600 600" fill="none" xmlns="http://www.w3.org/2000/svg">
<g clip-path="url(#clip0_1_6)">
<mask id="mask0_1_6" style="mask-type:luminance" maskUnits="userSpaceOnUse" x="0" y="0" width="600" height="600">
<path d="M600 0H0V600H600V0Z" fill="white"/>
</mask>
<g mask="url(#mask0_1_6)">
<path d="M600 0H0V600H600V0Z" fill="white"/>
</g>
<mask id="mask1_1_6" style="mask-type:luminance" maskUnits="userSpaceOnUse" x="39" y="39" width="522" height="522">
<path d="M292.949 39.1304H278.848V53.2315H292.949V39.1304Z" fill="white"/>
<path d="M307.051 39.1304H292.949V53.2315H307.051V39.1304Z" fill="white"/>
<path d="M335.253 39.1304H321.152V53.2315H335.253V39.1304Z" fill="white"/>
<path d="M349.354 39.1304H335.253V53.2315H349.354V39.1304Z" fill="white"/>
<path d="M405.758 39.1304H391.657V53.2315H405.758V39.1304Z" fill="white"/>
<path d="M166.04 53.2315H151.939V67.3325H166.04V53.2315Z" fill="white"/>
<path d="M180.141 53.2315H166.04V67.3325H180.141V53.2315Z" fill="white"/>
<path d="M194.242 53.2315H180.141V67.3325H194.242V53.2315Z" fill="white"/>
<path d="M222.444 53.2315H208.343V67.3325H222.444V53.2315Z" fill="white"/>
<path d="M236.545 53.2315H222.444V67.3325H236.545V53.2315Z" fill="white"/>
<path d="M250.646 53.2315H236.545V67.3325H250.646V53.2315Z" fill="white"/>
<path d="M264.747 53.2315H250.646V67.3325H264.747V53.2315Z" fill="white"/>
<path d="M278.848 53.2315H264.747V67.3325H278.848V53.2315Z" fill="white"/>
<path d="M307.051 53.2315H292.949V67.3325H307.051V53.2315Z" fill="white"/>
<path d="M321.152 53.2315H307.051V67.3325H321.152V53.2315Z" fill="white"/>
<path d="M349.354 53.2315H335.253V67.3325H349.354V53.2315Z" fill="white"/>
<path d="M405.758 53.2315H391.657V67.3325H405.758V53.2315Z" fill="white"/>
<path d="M419.859 53.2315H405.758V67.3325H419.859V53.2315Z" fill="white"/>
<path d="M448.061 53.2315H433.96V67.3325H448.061V53.2315Z" fill="white"/>
<path d="M166.04 67.3326H151.939V81.4336H166.04V67.3326Z" fill="white"/>
<path d="M194.242 67.3326H180.141V81.4336H194.242V67.3326Z" fill="white"/>
<path d="M222.444 67.3326H208.343V81.4336H222.444V67.3326Z" fill="white"/>
<path d="M250.646 67.3326H236.545V81.4336H250.646V67.3326Z" fill="white"/>
<path d="M264.747 67.3326H250.646V81.4336H264.747V67.3326Z" fill="white"/>
<path d="M307.051 67.3326H292.949V81.4336H307.051V67.3326Z" fill="white"/>
<path d="M321.152 67.3326H307.051V81.4336H321.152V67.3326Z" fill="white"/>
<path d="M335.253 67.3326H321.152V81.4336H335.253V67.3326Z" fill="white"/>
<path d="M377.556 67.3326H363.455V81.4336H377.556V67.3326Z" fill="white"/>
<path d="M391.657 67.3326H377.556V81.4336H391.657V67.3326Z" fill="white"/>
<path d="M405.758 67.3326H391.657V81.4336H405.758V67.3326Z" fill="white"/>
<path d="M194.242 81.4336H180.141V95.5346H194.242V81.4336Z" fill="white"/>
<path d="M208.343 81.4336H194.242V95.5346H208.343V81.4336Z" fill="white"/>
<path d="M222.444 81.4336H208.343V95.5346H222.444V81.4336Z" fill="white"/>
<path d="M278.848 81.4336H264.747V95.5346H278.848V81.4336Z" fill="white"/>
<path d="M335.253 81.4336H321.152V95.5346H335.253V81.4336Z" fill="white"/>
<path d="M377.556 81.4336H363.455V95.5346H377.556V81.4336Z" fill="white"/>
<path d="M391.657 81.4336H377.556V95.5346H391.657V81.4336Z" fill="white"/>
<path d="M405.758 81.4336H391.657V95.5346H405.758V81.4336Z" fill="white"/>
<path d="M419.859 81.4336H405.758V95.5346H419.859V81.4336Z" fill="white"/>
<path d="M180.141 95.5347H166.04V109.636H180.141V95.5347Z" fill="white"/>
<path d="M194.242 95.5347H180.141V109.636H194.242V95.5347Z" fill="white"/>
<path d="M236.545 95.5347H222.444V109.636H236.545V95.5347Z" fill="white"/>
<path d="M264.747 95.5347H250.646V109.636H264.747V95.5347Z" fill="white"/>
<path d="M278.848 95.5347H264.747V109.636H278.848V95.5347Z" fill="white"/>
<path d="M321.152 95.5347H307.051V109.636H321.152V95.5347Z" fill="white"/>
<path d="M391.657 95.5347H377.556V109.636H391.657V95.5347Z" fill="white"/>
<path d="M405.758 95.5347H391.657V109.636H405.758V95.5347Z" fill="white"/>
<path d="M419.859 95.5347H405.758V109.636H419.859V95.5347Z" fill="white"/>
<path d="M433.96 95.5347H419.859V109.636H433.96V95.5347Z" fill="white"/>
<path d="M180.141 109.636H166.04V123.737H180.141V109.636Z" fill="white"/>
<path d="M194.242 109.636H180.141V123.737H194.242V109.636Z" fill="white"/>
<path d="M222.444 109.636H208.343V123.737H222.444V109.636Z" fill="white"/>
<path d="M236.545 109.636H222.444V123.737H236.545V109.636Z" fill="white"/>
<path d="M250.646 109.636H236.545V123.737H250.646V109.636Z" fill="white"/>
<path d="M307.051 109.636H292.949V123.737H307.051V109.636Z" fill="white"/>
<path d="M363.455 109.636H349.354V123.737H363.455V109.636Z" fill="white"/>
<path d="M391.657 109.636H377.556V123.737H391.657V109.636Z" fill="white"/>
<path d="M419.859 109.636H405.758V123.737H419.859V109.636Z" fill="white"/>
<path d="M166.04 123.737H151.939V137.838H166.04V123.737Z" fill="white"/>
<path d="M194.242 123.737H180.141V137.838H194.242V123.737Z" fill="white"/>
<path d="M222.444 123.737H208.343V137.838H222.444V123.737Z" fill="white"/>
<path d="M250.646 123.737H236.545V137.838H250.646V123.737Z" fill="white"/>
<path d="M278.848 123.737H264.747V137.838H278.848V123.737Z" fill="white"/>
<path d="M307.051 123.737H292.949V137.838H307.051V123.737Z" fill="white"/>
<path d="M335.253 123.737H321.152V137.838H335.253V123.737Z" fill="white"/>
<path d="M363.455 123.737H349.354V137.838H363.455V123.737Z" fill="white"/>
<path d="M391.657 123.737H377.556V137.838H391.657V123.737Z" fill="white"/>
<path d="M419.859 123.737H405.758V137.838H419.859V123.737Z" fill="white"/>
<path d="M448.061 123.737H433.96V137.838H448.061V123.737Z" fill="white"/>
<path d="M180.141 137.838H166.04V151.939H180.141V137.838Z" fill="white"/>
<path d="M250.646 137.838H236.545V151.939H250.646V137.838Z" fill="white"/>
<path d="M264.747 137.838H250.646V151.939H264.747V137.838Z" fill="white"/>
<path d="M292.949 137.838H278.848V151.939H292.949V137.838Z" fill="white"/>
<path d="M307.051 137.838H292.949V151.939H307.051V137.838Z" fill="white"/>
<path d="M321.152 137.838H307.051V151.939H321.152V137.838Z" fill="white"/>
<path d="M363.455 137.838H349.354V151.939H363.455V137.838Z" fill="white"/>
<path d="M377.556 137.838H363.455V151.939H377.556V137.838Z" fill="white"/>
<path d="M405.758 137.838H391.657V151.939H405.758V137.838Z" fill="white"/>
<path d="M419.859 137.838H405.758V151.939H419.859V137.838Z" fill="white"/>
<path d="M433.96 137.838H419.859V151.939H433.96V137.838Z" fill="white"/>
<path d="M448.061 137.838H433.96V151.939H448.061V137.838Z" fill="white"/>
<path d="M67.3326 151.939H53.2315V166.04H67.3326V151.939Z" fill="white"/>
<path d="M81.4336 151.939H67.3325V166.04H81.4336V151.939Z" fill="white"/>
<path d="M95.5346 151.939H81.4336V166.04H95.5346V151.939Z" fill="white"/>
<path d="M123.737 151.939H109.636V166.04H123.737V151.939Z" fill="white"/>
<path d="M137.838 151.939H123.737V166.04H137.838V151.939Z" fill="white"/>
<path d="M180.141 151.939H166.04V166.04H180.141V151.939Z" fill="white"/>
<path d="M222.444 151.939H208.343V166.04H222.444V151.939Z" fill="white"/>
<path d="M236.545 151.939H222.444V166.04H236.545V151.939Z" fill="white"/>
<path d="M250.646 151.939H236.545V166.04H250.646V151.939Z" fill="white"/>
<path d="M292.949 151.939H278.848V166.04H292.949V151.939Z" fill="white"/>
<path d="M349.354 151.939H335.253V166.04H349.354V151.939Z" fill="white"/>
<path d="M377.556 151.939H363.455V166.04H377.556V151.939Z" fill="white"/>
<path d="M405.758 151.939H391.657V166.04H405.758V151.939Z" fill="white"/>
<path d="M419.859 151.939H405.758V166.04H419.859V151.939Z" fill="white"/>
<path d="M433.96 151.939H419.859V166.04H433.96V151.939Z" fill="white"/>
<path d="M448.061 151.939H433.96V166.04H448.061V151.939Z" fill="white"/>
<path d="M532.667 151.939H518.566V166.04H532.667V151.939Z" fill="white"/>
<path d="M546.769 151.939H532.667V166.04H546.769V151.939Z" fill="white"/>
<path d="M109.636 166.04H95.5347V180.141H109.636V166.04Z" fill="white"/>
<path d="M123.737 166.04H109.636V180.141H123.737V166.04Z" fill="white"/>
<path d="M151.939 166.04H137.838V180.141H151.939V166.04Z" fill="white"/>
<path d="M166.04 166.04H151.939V180.141H166.04V166.04Z" fill="white"/>
<path d="M180.141 166.04H166.04V180.141H180.141V166.04Z" fill="white"/>
<path d="M194.242 166.04H180.141V180.141H194.242V166.04Z" fill="white"/>
<path d="M208.343 166.04H194.242V180.141H208.343V166.04Z" fill="white"/>
<path d="M222.444 166.04H208.343V180.141H222.444V166.04Z" fill="white"/>
<path d="M236.545 166.04H222.444V180.141H236.545V166.04Z" fill="white"/>
<path d="M278.848 166.04H264.747V180.141H278.848V166.04Z" fill="white"/>
<path d="M307.051 166.04H292.949V180.141H307.051V166.04Z" fill="white"/>
<path d="M321.152 166.04H307.051V180.141H321.152V166.04Z" fill="white"/>
<path d="M335.253 166.04H321.152V180.141H335.253V166.04Z" fill="white"/>
<path d="M349.354 166.04H335.253V180.141H349.354V166.04Z" fill="white"/>
<path d="M363.455 166.04H349.354V180.141H363.455V166.04Z" fill="white"/>
<path d="M377.556 166.04H363.455V180.141H377.556V166.04Z" fill="white"/>
<path d="M405.758 166.04H391.657V180.141H405.758V166.04Z" fill="white"/>
<path d="M433.96 166.04H419.859V180.141H433.96V166.04Z" fill="white"/>
<path d="M462.162 166.04H448.061V180.141H462.162V166.04Z" fill="white"/>
<path d="M518.566 166.04H504.465V180.141H518.566V166.04Z" fill="white"/>
<path d="M532.667 166.04H518.566V180.141H532.667V166.04Z" fill="white"/>
<path d="M81.4336 180.141H67.3325V194.242H81.4336V180.141Z" fill="white"/>
<path d="M123.737 180.141H109.636V194.242H123.737V180.141Z" fill="white"/>
<path d="M137.838 180.141H123.737V194.242H137.838V180.141Z" fill="white"/>
<path d="M151.939 180.141H137.838V194.242H151.939V180.141Z" fill="white"/>
<path d="M166.04 180.141H151.939V194.242H166.04V180.141Z" fill="white"/>
<path d="M194.242 180.141H180.141V194.242H194.242V180.141Z" fill="white"/>
<path d="M222.444 180.141H208.343V194.242H222.444V180.141Z" fill="white"/>
<path d="M236.545 180.141H222.444V194.242H236.545V180.141Z" fill="white"/>
<path d="M292.949 180.141H278.848V194.242H292.949V180.141Z" fill="white"/>
<path d="M307.051 180.141H292.949V194.242H307.051V180.141Z" fill="white"/>
<path d="M321.152 180.141H307.051V194.242H321.152V180.141Z" fill="white"/>
<path d="M335.253 180.141H321.152V194.242H335.253V180.141Z" fill="white"/>
<path d="M363.455 180.141H349.354V194.242H363.455V180.141Z" fill="white"/>
<path d="M377.556 180.141H363.455V194.242H377.556V180.141Z" fill="white"/>
<path d="M391.657 180.141H377.556V194.242H391.657V180.141Z" fill="white"/>
<path d="M405.758 180.141H391.657V194.242H405.758V180.141Z" fill="white"/>
<path d="M448.061 180.141H433.96V194.242H448.061V180.141Z" fill="white"/>
<path d="M462.162 180.141H448.061V194.242H462.162V180.141Z" fill="white"/>
<path d="M490.364 180.141H476.263V194.242H490.364V180.141Z" fill="white"/>
<path d="M53.2315 194.242H39.1304V208.343H53.2315V194.242Z" fill="white"/>
<path d="M67.3326 194.242H53.2315V208.343H67.3326V194.242Z" fill="white"/>
<path d="M109.636 194.242H95.5347V208.343H109.636V194.242Z" fill="white"/>
<path d="M151.939 194.242H137.838V208.343H151.939V194.242Z" fill="white"/>
<path d="M194.242 194.242H180.141V208.343H194.242V194.242Z" fill="white"/>
<path d="M208.343 194.242H194.242V208.343H208.343V194.242Z" fill="white"/>
<path d="M363.455 194.242H349.354V208.343H363.455V194.242Z" fill="white"/>
<path d="M377.556 194.242H363.455V208.343H377.556V194.242Z" fill="white"/>
<path d="M391.657 194.242H377.556V208.343H391.657V194.242Z" fill="white"/>
<path d="M405.758 194.242H391.657V208.343H405.758V194.242Z" fill="white"/>
<path d="M419.859 194.242H405.758V208.343H419.859V194.242Z" fill="white"/>
<path d="M448.061 194.242H433.96V208.343H448.061V194.242Z" fill="white"/>
<path d="M490.364 194.242H476.263V208.343H490.364V194.242Z" fill="white"/>
<path d="M532.667 194.242H518.566V208.343H532.667V194.242Z" fill="white"/>
<path d="M546.769 194.242H532.667V208.343H546.769V194.242Z" fill="white"/>
<path d="M560.87 194.242H546.769V208.343H560.87V194.242Z" fill="white"/>
<path d="M81.4336 208.343H67.3325V222.444H81.4336V208.343Z" fill="white"/>
<path d="M95.5346 208.343H81.4336V222.444H95.5346V208.343Z" fill="white"/>
<path d="M123.737 208.343H109.636V222.444H123.737V208.343Z" fill="white"/>
<path d="M137.838 208.343H123.737V222.444H137.838V208.343Z" fill="white"/>
<path d="M166.04 208.343H151.939V222.444H166.04V208.343Z" fill="white"/>
<path d="M194.242 208.343H180.141V222.444H194.242V208.343Z" fill="white"/>
<path d="M208.343 208.343H194.242V222.444H208.343V208.343Z" fill="white"/>
<path d="M236.545 208.343H222.444V222.444H236.545V208.343Z" fill="white"/>
<path d="M307.051 208.343H292.949V222.444H307.051V208.343Z" fill="white"/>
<path d="M335.253 208.343H321.152V222.444H335.253V208.343Z" fill="white"/>
<path d="M377.556 208.343H363.455V222.444H377.556V208.343Z" fill="white"/>
<path d="M405.758 208.343H391.657V222.444H405.758V208.343Z" fill="white"/>
<path d="M419.859 208.343H405.758V222.444H419.859V208.343Z" fill="white"/>
<path d="M448.061 208.343H433.96V222.444H448.061V208.343Z" fill="white"/>
<path d="M462.162 208.343H448.061V222.444H462.162V208.343Z" fill="white"/>
<path d="M476.263 208.343H462.162V222.444H476.263V208.343Z" fill="white"/>
<path d="M504.465 208.343H490.364V222.444H504.465V208.343Z" fill="white"/>
<path d="M532.667 208.343H518.566V222.444H532.667V208.343Z" fill="white"/>
<path d="M546.769 208.343H532.667V222.444H546.769V208.343Z" fill="white"/>
<path d="M67.3326 222.444H53.2315V236.545H67.3326V222.444Z" fill="white"/>
<path d="M95.5346 222.444H81.4336V236.545H95.5346V222.444Z" fill="white"/>
<path d="M109.636 222.444H95.5347V236.545H109.636V222.444Z" fill="white"/>
<path d="M180.141 222.444H166.04V236.545H180.141V222.444Z" fill="white"/>
<path d="M250.646 222.444H236.545V236.545H250.646V222.444Z" fill="white"/>
<path d="M278.848 222.444H264.747V236.545H278.848V222.444Z" fill="white"/>
<path d="M292.949 222.444H278.848V236.545H292.949V222.444Z" fill="white"/>
<path d="M307.051 222.444H292.949V236.545H307.051V222.444Z" fill="white"/>
<path d="M363.455 222.444H349.354V236.545H363.455V222.444Z" fill="white"/>
<path d="M391.657 222.444H377.556V236.545H391.657V222.444Z" fill="white"/>
<path d="M405.758 222.444H391.657V236.545H405.758V222.444Z" fill="white"/>
<path d="M419.859 222.444H405.758V236.545H419.859V222.444Z" fill="white"/>
<path d="M433.96 222.444H419.859V236.545H433.96V222.444Z" fill="white"/>
<path d="M448.061 222.444H433.96V236.545H448.061V222.444Z" fill="white"/>
<path d="M476.263 222.444H462.162V236.545H476.263V222.444Z" fill="white"/>
<path d="M490.364 222.444H476.263V236.545H490.364V222.444Z" fill="white"/>
<path d="M504.465 222.444H490.364V236.545H504.465V222.444Z" fill="white"/>
<path d="M532.667 222.444H518.566V236.545H532.667V222.444Z" fill="white"/>
<path d="M560.87 222.444H546.769V236.545H560.87V222.444Z" fill="white"/>
<path d="M53.2315 236.545H39.1304V250.646H53.2315V236.545Z" fill="white"/>
<path d="M81.4336 236.545H67.3325V250.646H81.4336V236.545Z" fill="white"/>
<path d="M95.5346 236.545H81.4336V250.646H95.5346V236.545Z" fill="white"/>
<path d="M137.838 236.545H123.737V250.646H137.838V236.545Z" fill="white"/>
<path d="M151.939 236.545H137.838V250.646H151.939V236.545Z" fill="white"/>
<path d="M180.141 236.545H166.04V250.646H180.141V236.545Z" fill="white"/>
<path d="M208.343 236.545H194.242V250.646H208.343V236.545Z" fill="white"/>
<path d="M222.444 236.545H208.343V250.646H222.444V236.545Z" fill="white"/>
<path d="M236.545 236.545H222.444V250.646H236.545V236.545Z" fill="white"/>
<path d="M250.646 236.545H236.545V250.646H250.646V236.545Z" fill="white"/>
<path d="M264.747 236.545H250.646V250.646H264.747V236.545Z" fill="white"/>
<path d="M278.848 236.545H264.747V250.646H278.848V236.545Z" fill="white"/>
<path d="M335.253 236.545H321.152V250.646H335.253V236.545Z" fill="white"/>
<path d="M363.455 236.545H349.354V250.646H363.455V236.545Z" fill="white"/>
<path d="M419.859 236.545H405.758V250.646H419.859V236.545Z" fill="white"/>
<path d="M462.162 236.545H448.061V250.646H462.162V236.545Z" fill="white"/>
<path d="M476.263 236.545H462.162V250.646H476.263V236.545Z" fill="white"/>
<path d="M490.364 236.545H476.263V250.646H490.364V236.545Z" fill="white"/>
<path d="M504.465 236.545H490.364V250.646H504.465V236.545Z" fill="white"/>
<path d="M532.667 236.545H518.566V250.646H532.667V236.545Z" fill="white"/>
<path d="M546.769 236.545H532.667V250.646H546.769V236.545Z" fill="white"/>
<path d="M67.3326 250.646H53.2315V264.747H67.3326V250.646Z" fill="white"/>
<path d="M95.5346 250.646H81.4336V264.747H95.5346V250.646Z" fill="white"/>
<path d="M123.737 250.646H109.636V264.747H123.737V250.646Z" fill="white"/>
<path d="M151.939 250.646H137.838V264.747H151.939V250.646Z" fill="white"/>
<path d="M166.04 250.646H151.939V264.747H166.04V250.646Z" fill="white"/>
<path d="M180.141 250.646H166.04V264.747H180.141V250.646Z" fill="white"/>
<path d="M194.242 250.646H180.141V264.747H194.242V250.646Z" fill="white"/>
<path d="M208.343 250.646H194.242V264.747H208.343V250.646Z" fill="white"/>
<path d="M292.949 250.646H278.848V264.747H292.949V250.646Z" fill="white"/>
<path d="M307.051 250.646H292.949V264.747H307.051V250.646Z" fill="white"/>
<path d="M321.152 250.646H307.051V264.747H321.152V250.646Z" fill="white"/>
<path d="M349.354 250.646H335.253V264.747H349.354V250.646Z" fill="white"/>
<path d="M363.455 250.646H349.354V264.747H363.455V250.646Z" fill="white"/>
<path d="M391.657 250.646H377.556V264.747H391.657V250.646Z" fill="white"/>
<path d="M419.859 250.646H405.758V264.747H419.859V250.646Z" fill="white"/>
<path d="M433.96 250.646H419.859V264.747H433.96V250.646Z" fill="white"/>
<path d="M448.061 250.646H433.96V264.747H448.061V250.646Z" fill="white"/>
<path d="M490.364 250.646H476.263V264.747H490.364V250.646Z" fill="white"/>
<path d="M504.465 250.646H490.364V264.747H504.465V250.646Z" fill="white"/>
<path d="M560.87 250.646H546.769V264.747H560.87V250.646Z" fill="white"/>
<path d="M81.4336 264.747H67.3325V278.848H81.4336V264.747Z" fill="white"/>
<path d="M95.5346 264.747H81.4336V278.848H95.5346V264.747Z" fill="white"/>
<path d="M109.636 264.747H95.5347V278.848H109.636V264.747Z" fill="white"/>
<path d="M123.737 264.747H109.636V278.848H123.737V264.747Z" fill="white"/>
<path d="M137.838 264.747H123.737V278.848H137.838V264.747Z" fill="white"/>
<path d="M151.939 264.747H137.838V278.848H151.939V264.747Z" fill="white"/>
<path d="M166.04 264.747H151.939V278.848H166.04V264.747Z" fill="white"/>
<path d="M194.242 264.747H180.141V278.848H194.242V264.747Z" fill="white"/>
<path d="M236.545 264.747H222.444V278.848H236.545V264.747Z" fill="white"/>
<path d="M250.646 264.747H236.545V278.848H250.646V264.747Z" fill="white"/>
<path d="M264.747 264.747H250.646V278.848H264.747V264.747Z" fill="white"/>
<path d="M278.848 264.747H264.747V278.848H278.848V264.747Z" fill="white"/>
<path d="M292.949 264.747H278.848V278.848H292.949V264.747Z" fill="white"/>
<path d="M377.556 264.747H363.455V278.848H377.556V264.747Z" fill="white"/>
<path d="M391.657 264.747H377.556V278.848H391.657V264.747Z" fill="white"/>
<path d="M405.758 264.747H391.657V278.848H405.758V264.747Z" fill="white"/>
<path d="M433.96 264.747H419.859V278.848H433.96V264.747Z" fill="white"/>
<path d="M518.566 264.747H504.465V278.848H518.566V264.747Z" fill="white"/>
<path d="M532.667 264.747H518.566V278.848H532.667V264.747Z" fill="white"/>
<path d="M546.769 264.747H532.667V278.848H546.769V264.747Z" fill="white"/>
<path d="M67.3326 278.848H53.2315V292.949H67.3326V278.848Z" fill="white"/>
<path d="M81.4336 278.848H67.3325V292.949H81.4336V278.848Z" fill="white"/>
<path d="M194.242 278.848H180.141V292.949H194.242V278.848Z" fill="white"/>
<path d="M236.545 278.848H222.444V292.949H236.545V278.848Z" fill="white"/>
<path d="M250.646 278.848H236.545V292.949H250.646V278.848Z" fill="white"/>
<path d="M264.747 278.848H250.646V292.949H264.747V278.848Z" fill="white"/>
<path d="M307.051 278.848H292.949V292.949H307.051V278.848Z" fill="white"/>
<path d="M349.354 278.848H335.253V292.949H349.354V278.848Z" fill="white"/>
<path d="M405.758 278.848H391.657V292.949H405.758V278.848Z" fill="white"/>
<path d="M433.96 278.848H419.859V292.949H433.96V278.848Z" fill="white"/>
<path d="M476.263 278.848H462.162V292.949H476.263V278.848Z" fill="white"/>
<path d="M490.364 278.848H476.263V292.949H490.364V278.848Z" fill="white"/>
<path d="M532.667 278.848H518.566V292.949H532.667V278.848Z" fill="white"/>
<path d="M560.87 278.848H546.769V292.949H560.87V278.848Z" fill="white"/>
<path d="M67.3326 292.949H53.2315V307.051H67.3326V292.949Z" fill="white"/>
<path d="M95.5346 292.949H81.4336V307.051H95.5346V292.949Z" fill="white"/>
<path d="M137.838 292.949H123.737V307.051H137.838V292.949Z" fill="white"/>
<path d="M151.939 292.949H137.838V307.051H151.939V292.949Z" fill="white"/>
<path d="M166.04 292.949H151.939V307.051H166.04V292.949Z" fill="white"/>
<path d="M180.141 292.949H166.04V307.051H180.141V292.949Z" fill="white"/>
<path d="M236.545 292.949H222.444V307.051H236.545V292.949Z" fill="white"/>
<path d="M250.646 292.949H236.545V307.051H250.646V292.949Z" fill="white"/>
<path d="M278.848 292.949H264.747V307.051H278.848V292.949Z" fill="white"/>
<path d="M335.253 292.949H321.152V307.051H335.253V292.949Z" fill="white"/>
<path d="M363.455 292.949H349.354V307.051H363.455V292.949Z" fill="white"/>
<path d="M405.758 292.949H391.657V307.051H405.758V292.949Z" fill="white"/>
<path d="M419.859 292.949H405.758V307.051H419.859V292.949Z" fill="white"/>
<path d="M433.96 292.949H419.859V307.051H433.96V292.949Z" fill="white"/>
<path d="M448.061 292.949H433.96V307.051H448.061V292.949Z" fill="white"/>
<path d="M462.162 292.949H448.061V307.051H462.162V292.949Z" fill="white"/>
<path d="M490.364 292.949H476.263V307.051H490.364V292.949Z" fill="white"/>
<path d="M518.566 292.949H504.465V307.051H518.566V292.949Z" fill="white"/>
<path d="M546.769 292.949H532.667V307.051H546.769V292.949Z" fill="white"/>
<path d="M560.87 292.949H546.769V307.051H560.87V292.949Z" fill="white"/>
<path d="M53.2315 307.051H39.1304V321.152H53.2315V307.051Z" fill="white"/>
<path d="M67.3326 307.051H53.2315V321.152H67.3326V307.051Z" fill="white"/>
<path d="M81.4336 307.051H67.3325V321.152H81.4336V307.051Z" fill="white"/>
<path d="M95.5346 307.051H81.4336V321.152H95.5346V307.051Z" fill="white"/>
<path d="M151.939 307.051H137.838V321.152H151.939V307.051Z" fill="white"/>
<path d="M222.444 307.051H208.343V321.152H222.444V307.051Z" fill="white"/>
<path d="M236.545 307.051H222.444V321.152H236.545V307.051Z" fill="white"/>
<path d="M307.051 307.051H292.949V321.152H307.051V307.051Z" fill="white"/>
<path d="M377.556 307.051H363.455V321.152H377.556V307.051Z" fill="white"/>
<path d="M419.859 307.051H405.758V321.152H419.859V307.051Z" fill="white"/>
<path d="M433.96 307.051H419.859V321.152H433.96V307.051Z" fill="white"/>
<path d="M448.061 307.051H433.96V321.152H448.061V307.051Z" fill="white"/>
<path d="M476.263 307.051H462.162V321.152H476.263V307.051Z" fill="white"/>
<path d="M490.364 307.051H476.263V321.152H490.364V307.051Z" fill="white"/>
<path d="M504.465 307.051H490.364V321.152H504.465V307.051Z" fill="white"/>
<path d="M518.566 307.051H504.465V321.152H518.566V307.051Z" fill="white"/>
<path d="M546.769 307.051H532.667V321.152H546.769V307.051Z" fill="white"/>
<path d="M53.2315 321.152H39.1304V335.253H53.2315V321.152Z" fill="white"/>
<path d="M95.5346 321.152H81.4336V335.253H95.5346V321.152Z" fill="white"/>
<path d="M109.636 321.152H95.5347V335.253H109.636V321.152Z" fill="white"/>
<path d="M123.737 321.152H109.636V335.253H123.737V321.152Z" fill="white"/>
<path d="M137.838 321.152H123.737V335.253H137.838V321.152Z" fill="white"/>
<path d="M151.939 321.152H137.838V335.253H151.939V321.152Z" fill="white"/>
<path d="M194.242 321.152H180.141V335.253H194.242V321.152Z" fill="white"/>
<path d="M222.444 321.152H208.343V335.253H222.444V321.152Z" fill="white"/>
<path d="M236.545 321.152H222.444V335.253H236.545V321.152Z" fill="white"/>
<path d="M278.848 321.152H264.747V335.253H278.848V321.152Z" fill="white"/>
<path d="M292.949 321.152H278.848V335.253H292.949V321.152Z" fill="white"/>
<path d="M321.152 321.152H307.051V335.253H321.152V321.152Z" fill="white"/>
<path d="M335.253 321.152H321.152V335.253H335.253V321.152Z" fill="white"/>
<path d="M349.354 321.152H335.253V335.253H349.354V321.152Z" fill="white"/>
<path d="M419.859 321.152H405.758V335.253H419.859V321.152Z" fill="white"/>
<path d="M433.96 321.152H419.859V335.253H433.96V321.152Z" fill="white"/>
<path d="M448.061 321.152H433.96V335.253H448.061V321.152Z" fill="white"/>
<path d="M462.162 321.152H448.061V335.253H462.162V321.152Z" fill="white"/>
<path d="M504.465 321.152H490.364V335.253H504.465V321.152Z" fill="white"/>
<path d="M546.769 321.152H532.667V335.253H546.769V321.152Z" fill="white"/>
<path d="M53.2315 335.253H39.1304V349.354H53.2315V335.253Z" fill="white"/>
<path d="M95.5346 335.253H81.4336V349.354H95.5346V335.253Z" fill="white"/>
<path d="M109.636 335.253H95.5347V349.354H109.636V335.253Z" fill="white"/>
<path d="M151.939 335.253H137.838V349.354H151.939V335.253Z" fill="white"/>
<path d="M194.242 335.253H180.141V349.354H194.242V335.253Z" fill="white"/>
<path d="M222.444 335.253H208.343V349.354H222.444V335.253Z" fill="white"/>
<path d="M264.747 335.253H250.646V349.354H264.747V335.253Z" fill="white"/>
<path d="M278.848 335.253H264.747V349.354H278.848V335.253Z" fill="white"/>
<path d="M292.949 335.253H278.848V349.354H292.949V335.253Z" fill="white"/>
<path d="M307.051 335.253H292.949V349.354H307.051V335.253Z" fill="white"/>
<path d="M321.152 335.253H307.051V349.354H321.152V335.253Z" fill="white"/>
<path d="M335.253 335.253H321.152V349.354H335.253V335.253Z" fill="white"/>
<path d="M349.354 335.253H335.253V349.354H349.354V335.253Z" fill="white"/>
<path d="M377.556 335.253H363.455V349.354H377.556V335.253Z" fill="white"/>
<path d="M419.859 335.253H405.758V349.354H419.859V335.253Z" fill="white"/>
<path d="M490.364 335.253H476.263V349.354H490.364V335.253Z" fill="white"/>
<path d="M518.566 335.253H504.465V349.354H518.566V335.253Z" fill="white"/>
<path d="M546.769 335.253H532.667V349.354H546.769V335.253Z" fill="white"/>
<path d="M53.2315 349.354H39.1304V363.455H53.2315V349.354Z" fill="white"/>
<path d="M67.3326 349.354H53.2315V363.455H67.3326V349.354Z" fill="white"/>
<path d="M95.5346 349.354H81.4336V363.455H95.5346V349.354Z" fill="white"/>
<path d="M137.838 349.354H123.737V363.455H137.838V349.354Z" fill="white"/>
<path d="M151.939 349.354H137.838V363.455H151.939V349.354Z" fill="white"/>
<path d="M180.141 349.354H166.04V363.455H180.141V349.354Z" fill="white"/>
<path d="M194.242 349.354H180.141V363.455H194.242V349.354Z" fill="white"/>
<path d="M222.444 349.354H208.343V363.455H222.444V349.354Z" fill="white"/>
<path d="M236.545 349.354H222.444V363.455H236.545V349.354Z" fill="white"/>
<path d="M264.747 349.354H250.646V363.455H264.747V349.354Z" fill="white"/>
<path d="M292.949 349.354H278.848V363.455H292.949V349.354Z" fill="white"/>
<path d="M307.051 349.354H292.949V363.455H307.051V349.354Z" fill="white"/>
<path d="M321.152 349.354H307.051V363.455H321.152V349.354Z" fill="white"/>
<path d="M335.253 349.354H321.152V363.455H335.253V349.354Z" fill="white"/>
<path d="M377.556 349.354H363.455V363.455H377.556V349.354Z" fill="white"/>
<path d="M391.657 349.354H377.556V363.455H391.657V349.354Z" fill="white"/>
<path d="M419.859 349.354H405.758V363.455H419.859V349.354Z" fill="white"/>
<path d="M504.465 349.354H490.364V363.455H504.465V349.354Z" fill="white"/>
<path d="M518.566 349.354H504.465V363.455H518.566V349.354Z" fill="white"/>
<path d="M546.769 349.354H532.667V363.455H546.769V349.354Z" fill="white"/>
<path d="M67.3326 363.455H53.2315V377.556H67.3326V363.455Z" fill="white"/>
<path d="M81.4336 363.455H67.3325V377.556H81.4336V363.455Z" fill="white"/>
<path d="M109.636 363.455H95.5347V377.556H109.636V363.455Z" fill="white"/>
<path d="M151.939 363.455H137.838V377.556H151.939V363.455Z" fill="white"/>
<path d="M194.242 363.455H180.141V377.556H194.242V363.455Z" fill="white"/>
<path d="M208.343 363.455H194.242V377.556H208.343V363.455Z" fill="white"/>
<path d="M236.545 363.455H222.444V377.556H236.545V363.455Z" fill="white"/>
<path d="M250.646 363.455H236.545V377.556H250.646V363.455Z" fill="white"/>
<path d="M307.051 363.455H292.949V377.556H307.051V363.455Z" fill="white"/>
<path d="M321.152 363.455H307.051V377.556H321.152V363.455Z" fill="white"/>
<path d="M335.253 363.455H321.152V377.556H335.253V363.455Z" fill="white"/>
<path d="M363.455 363.455H349.354V377.556H363.455V363.455Z" fill="white"/>
<path d="M377.556 363.455H363.455V377.556H377.556V363.455Z" fill="white"/>
<path d="M391.657 363.455H377.556V377.556H391.657V363.455Z" fill="white"/>
<path d="M405.758 363.455H391.657V377.556H405.758V363.455Z" fill="white"/>
<path d="M419.859 363.455H405.758V377.556H419.859V363.455Z" fill="white"/>
<path d="M433.96 363.455H419.859V377.556H433.96V363.455Z" fill="white"/>
<path d="M448.061 363.455H433.96V377.556H448.061V363.455Z" fill="white"/>
<path d="M462.162 363.455H448.061V377.556H462.162V363.455Z" fill="white"/>
<path d="M518.566 363.455H504.465V377.556H518.566V363.455Z" fill="white"/>
<path d="M532.667 363.455H518.566V377.556H532.667V363.455Z" fill="white"/>
<path d="M546.769 363.455H532.667V377.556H546.769V363.455Z" fill="white"/>
<path d="M560.87 363.455H546.769V377.556H560.87V363.455Z" fill="white"/>
<path d="M67.3326 377.556H53.2315V391.657H67.3326V377.556Z" fill="white"/>
<path d="M81.4336 377.556H67.3325V391.657H81.4336V377.556Z" fill="white"/>
<path d="M137.838 377.556H123.737V391.657H137.838V377.556Z" fill="white"/>
<path d="M151.939 377.556H137.838V391.657H151.939V377.556Z" fill="white"/>
<path d="M180.141 377.556H166.04V391.657H180.141V377.556Z" fill="white"/>
<path d="M236.545 377.556H222.444V391.657H236.545V377.556Z" fill="white"/>
<path d="M264.747 377.556H250.646V391.657H264.747V377.556Z" fill="white"/>
<path d="M292.949 377.556H278.848V391.657H292.949V377.556Z" fill="white"/>
<path d="M363.455 377.556H349.354V391.657H363.455V377.556Z" fill="white"/>
<path d="M377.556 377.556H363.455V391.657H377.556V377.556Z" fill="white"/>
<path d="M391.657 377.556H377.556V391.657H391.657V377.556Z" fill="white"/>
<path d="M448.061 377.556H433.96V391.657H448.061V377.556Z" fill="white"/>
<path d="M476.263 377.556H462.162V391.657H476.263V377.556Z" fill="white"/>
<path d="M490.364 377.556H476.263V391.657H490.364V377.556Z" fill="white"/>
<path d="M504.465 377.556H490.364V391.657H504.465V377.556Z" fill="white"/>
<path d="M518.566 377.556H504.465V391.657H518.566V377.556Z" fill="white"/>
<path d="M532.667 377.556H518.566V391.657H532.667V377.556Z" fill="white"/>
<path d="M546.769 377.556H532.667V391.657H546.769V377.556Z" fill="white"/>
<path d="M560.87 377.556H546.769V391.657H560.87V377.556Z" fill="white"/>
<path d="M67.3326 391.657H53.2315V405.758H67.3326V391.657Z" fill="white"/>
<path d="M81.4336 391.657H67.3325V405.758H81.4336V391.657Z" fill="white"/>
<path d="M180.141 391.657H166.04V405.758H180.141V391.657Z" fill="white"/>
<path d="M208.343 391.657H194.242V405.758H208.343V391.657Z" fill="white"/>
<path d="M236.545 391.657H222.444V405.758H236.545V391.657Z" fill="white"/>
<path d="M250.646 391.657H236.545V405.758H250.646V391.657Z" fill="white"/>
<path d="M278.848 391.657H264.747V405.758H278.848V391.657Z" fill="white"/>
<path d="M335.253 391.657H321.152V405.758H335.253V391.657Z" fill="white"/>
<path d="M363.455 391.657H349.354V405.758H363.455V391.657Z" fill="white"/>
<path d="M433.96 391.657H419.859V405.758H433.96V391.657Z" fill="white"/>
<path d="M476.263 391.657H462.162V405.758H476.263V391.657Z" fill="white"/>
<path d="M504.465 391.657H490.364V405.758H504.465V391.657Z" fill="white"/>
<path d="M532.667 391.657H518.566V405.758H532.667V391.657Z" fill="white"/>
<path d="M546.769 391.657H532.667V405.758H546.769V391.657Z" fill="white"/>
<path d="M560.87 391.657H546.769V405.758H560.87V391.657Z" fill="white"/>
<path d="M67.3326 405.758H53.2315V419.859H67.3326V405.758Z" fill="white"/>
<path d="M95.5346 405.758H81.4336V419.859H95.5346V405.758Z" fill="white"/>
<path d="M123.737 405.758H109.636V419.859H123.737V405.758Z" fill="white"/>
<path d="M137.838 405.758H123.737V419.859H137.838V405.758Z" fill="white"/>
<path d="M166.04 405.758H151.939V419.859H166.04V405.758Z" fill="white"/>
<path d="M208.343 405.758H194.242V419.859H208.343V405.758Z" fill="white"/>
<path d="M222.444 405.758H208.343V419.859H222.444V405.758Z" fill="white"/>
<path d="M250.646 405.758H236.545V419.859H250.646V405.758Z" fill="white"/>
<path d="M321.152 405.758H307.051V419.859H321.152V405.758Z" fill="white"/>
<path d="M335.253 405.758H321.152V419.859H335.253V405.758Z" fill="white"/>
<path d="M349.354 405.758H335.253V419.859H349.354V405.758Z" fill="white"/>
<path d="M405.758 405.758H391.657V419.859H405.758V405.758Z" fill="white"/>
<path d="M490.364 405.758H476.263V419.859H490.364V405.758Z" fill="white"/>
<path d="M504.465 405.758H490.364V419.859H504.465V405.758Z" fill="white"/>
<path d="M518.566 405.758H504.465V419.859H518.566V405.758Z" fill="white"/>
<path d="M532.667 405.758H518.566V419.859H532.667V405.758Z" fill="white"/>
<path d="M53.2315 419.859H39.1304V433.96H53.2315V419.859Z" fill="white"/>
<path d="M81.4336 419.859H67.3325V433.96H81.4336V419.859Z" fill="white"/>
<path d="M95.5346 419.859H81.4336V433.96H95.5346V419.859Z" fill="white"/>
<path d="M109.636 419.859H95.5347V433.96H109.636V419.859Z" fill="white"/>
<path d="M166.04 419.859H151.939V433.96H166.04V419.859Z" fill="white"/>
<path d="M180.141 419.859H166.04V433.96H180.141V419.859Z" fill="white"/>
<path d="M236.545 419.859H222.444V433.96H236.545V419.859Z" fill="white"/>
<path d="M250.646 419.859H236.545V433.96H250.646V419.859Z" fill="white"/>
<path d="M321.152 419.859H307.051V433.96H321.152V419.859Z" fill="white"/>
<path d="M349.354 419.859H335.253V433.96H349.354V419.859Z" fill="white"/>
<path d="M377.556 419.859H363.455V433.96H377.556V419.859Z" fill="white"/>
<path d="M391.657 419.859H377.556V433.96H391.657V419.859Z" fill="white"/>
<path d="M419.859 419.859H405.758V433.96H419.859V419.859Z" fill="white"/>
<path d="M433.96 419.859H419.859V433.96H433.96V419.859Z" fill="white"/>
<path d="M448.061 419.859H433.96V433.96H448.061V419.859Z" fill="white"/>
<path d="M462.162 419.859H448.061V433.96H462.162V419.859Z" fill="white"/>
<path d="M518.566 419.859H504.465V433.96H518.566V419.859Z" fill="white"/>
<path d="M560.87 419.859H546.769V433.96H560.87V419.859Z" fill="white"/>
<path d="M81.4336 433.96H67.3325V448.061H81.4336V433.96Z" fill="white"/>
<path d="M95.5346 433.96H81.4336V448.061H95.5346V433.96Z" fill="white"/>
<path d="M109.636 433.96H95.5347V448.061H109.636V433.96Z" fill="white"/>
<path d="M123.737 433.96H109.636V448.061H123.737V433.96Z" fill="white"/>
<path d="M137.838 433.96H123.737V448.061H137.838V433.96Z" fill="white"/>
<path d="M180.141 433.96H166.04V448.061H180.141V433.96Z" fill="white"/>
<path d="M208.343 433.96H194.242V448.061H208.343V433.96Z" fill="white"/>
<path d="M222.444 433.96H208.343V448.061H222.444V433.96Z" fill="white"/>
<path d="M236.545 433.96H222.444V448.061H236.545V433.96Z" fill="white"/>
<path d="M278.848 433.96H264.747V448.061H278.848V433.96Z" fill="white"/>
<path d="M349.354 433.96H335.253V448.061H349.354V433.96Z" fill="white"/>
<path d="M391.657 433.96H377.556V448.061H391.657V433.96Z" fill="white"/>
<path d="M405.758 433.96H391.657V448.061H405.758V433.96Z" fill="white"/>
<path d="M448.061 433.96H433.96V448.061H448.061V433.96Z" fill="white"/>
<path d="M462.162 433.96H448.061V448.061H462.162V433.96Z" fill="white"/>
<path d="M476.263 433.96H462.162V448.061H476.263V433.96Z" fill="white"/>
<path d="M490.364 433.96H476.263V448.061H490.364V433.96Z" fill="white"/>
<path d="M504.465 433.96H490.364V448.061H504.465V433.96Z" fill="white"/>
<path d="M518.566 433.96H504.465V448.061H518.566V433.96Z" fill="white"/>
<path d="M532.667 433.96H518.566V448.061H532.667V433.96Z" fill="white"/>
<path d="M546.769 433.96H532.667V448.061H546.769V433.96Z" fill="white"/>
<path d="M166.04 448.061H151.939V462.162H166.04V448.061Z" fill="white"/>
<path d="M180.141 448.061H166.04V462.162H180.141V448.061Z" fill="white"/>
<path d="M194.242 448.061H180.141V462.162H194.242V448.061Z" fill="white"/>
<path d="M208.343 448.061H194.242V462.162H208.343V448.061Z" fill="white"/>
<path d="M236.545 448.061H222.444V462.162H236.545V448.061Z" fill="white"/>
<path d="M278.848 448.061H264.747V462.162H278.848V448.061Z" fill="white"/>
<path d="M292.949 448.061H278.848V462.162H292.949V448.061Z" fill="white"/>
<path d="M335.253 448.061H321.152V462.162H335.253V448.061Z" fill="white"/>
<path d="M349.354 448.061H335.253V462.162H349.354V448.061Z" fill="white"/>
<path d="M377.556 448.061H363.455V462.162H377.556V448.061Z" fill="white"/>
<path d="M391.657 448.061H377.556V462.162H391.657V448.061Z" fill="white"/>
<path d="M405.758 448.061H391.657V462.162H405.758V448.061Z" fill="white"/>
<path d="M419.859 448.061H405.758V462.162H419.859V448.061Z" fill="white"/>
<path d="M448.061 448.061H433.96V462.162H448.061V448.061Z" fill="white"/>
<path d="M504.465 448.061H490.364V462.162H504.465V448.061Z" fill="white"/>
<path d="M518.566 448.061H504.465V462.162H518.566V448.061Z" fill="white"/>
<path d="M532.667 448.061H518.566V462.162H532.667V448.061Z" fill="white"/>
<path d="M546.769 448.061H532.667V462.162H546.769V448.061Z" fill="white"/>
<path d="M560.87 448.061H546.769V462.162H560.87V448.061Z" fill="white"/>
<path d="M180.141 462.162H166.04V476.263H180.141V462.162Z" fill="white"/>
<path d="M222.444 462.162H208.343V476.263H222.444V462.162Z" fill="white"/>
<path d="M264.747 462.162H250.646V476.263H264.747V462.162Z" fill="white"/>
<path d="M321.152 462.162H307.051V476.263H321.152V462.162Z" fill="white"/>
<path d="M335.253 462.162H321.152V476.263H335.253V462.162Z" fill="white"/>
<path d="M363.455 462.162H349.354V476.263H363.455V462.162Z" fill="white"/>
<path d="M391.657 462.162H377.556V476.263H391.657V462.162Z" fill="white"/>
<path d="M405.758 462.162H391.657V476.263H405.758V462.162Z" fill="white"/>
<path d="M448.061 462.162H433.96V476.263H448.061V462.162Z" fill="white"/>
<path d="M476.263 462.162H462.162V476.263H476.263V462.162Z" fill="white"/>
<path d="M504.465 462.162H490.364V476.263H504.465V462.162Z" fill="white"/>
<path d="M518.566 462.162H504.465V476.263H518.566V462.162Z" fill="white"/>
<path d="M546.769 462.162H532.667V476.263H546.769V462.162Z" fill="white"/>
<path d="M560.87 462.162H546.769V476.263H560.87V462.162Z" fill="white"/>
<path d="M166.04 476.263H151.939V490.364H166.04V476.263Z" fill="white"/>
<path d="M222.444 476.263H208.343V490.364H222.444V476.263Z" fill="white"/>
<path d="M236.545 476.263H222.444V490.364H236.545V476.263Z" fill="white"/>
<path d="M250.646 476.263H236.545V490.364H250.646V476.263Z" fill="white"/>
<path d="M278.848 476.263H264.747V490.364H278.848V476.263Z" fill="white"/>
<path d="M321.152 476.263H307.051V490.364H321.152V476.263Z" fill="white"/>
<path d="M335.253 476.263H321.152V490.364H335.253V476.263Z" fill="white"/>
<path d="M349.354 476.263H335.253V490.364H349.354V476.263Z" fill="white"/>
<path d="M377.556 476.263H363.455V490.364H377.556V476.263Z" fill="white"/>
<path d="M448.061 476.263H433.96V490.364H448.061V476.263Z" fill="white"/>
<path d="M504.465 476.263H490.364V490.364H504.465V476.263Z" fill="white"/>
<path d="M518.566 476.263H504.465V490.364H518.566V476.263Z" fill="white"/>
<path d="M180.141 490.364H166.04V504.465H180.141V490.364Z" fill="white"/>
<path d="M194.242 490.364H180.141V504.465H194.242V490.364Z" fill="white"/>
<path d="M222.444 490.364H208.343V504.465H222.444V490.364Z" fill="white"/>
<path d="M236.545 490.364H222.444V504.465H236.545V490.364Z" fill="white"/>
<path d="M292.949 490.364H278.848V504.465H292.949V490.364Z" fill="white"/>
<path d="M307.051 490.364H292.949V504.465H307.051V490.364Z" fill="white"/>
<path d="M321.152 490.364H307.051V504.465H321.152V490.364Z" fill="white"/>
<path d="M335.253 490.364H321.152V504.465H335.253V490.364Z" fill="white"/>
<path d="M419.859 490.364H405.758V504.465H419.859V490.364Z" fill="white"/>
<path d="M448.061 490.364H433.96V504.465H448.061V490.364Z" fill="white"/>
<path d="M462.162 490.364H448.061V504.465H462.162V490.364Z" fill="white"/>
<path d="M476.263 490.364H462.162V504.465H476.263V490.364Z" fill="white"/>
<path d="M490.364 490.364H476.263V504.465H490.364V490.364Z" fill="white"/>
<path d="M504.465 490.364H490.364V504.465H504.465V490.364Z" fill="white"/>
<path d="M518.566 490.364H504.465V504.465H518.566V490.364Z" fill="white"/>
<path d="M166.04 504.465H151.939V518.566H166.04V504.465Z" fill="white"/>
<path d="M208.343 504.465H194.242V518.566H208.343V504.465Z" fill="white"/>
<path d="M292.949 504.465H278.848V518.566H292.949V504.465Z" fill="white"/>
<path d="M349.354 504.465H335.253V518.566H349.354V504.465Z" fill="white"/>
<path d="M419.859 504.465H405.758V518.566H419.859V504.465Z" fill="white"/>
<path d="M433.96 504.465H419.859V518.566H433.96V504.465Z" fill="white"/>
<path d="M448.061 504.465H433.96V518.566H448.061V504.465Z" fill="white"/>
<path d="M476.263 504.465H462.162V518.566H476.263V504.465Z" fill="white"/>
<path d="M504.465 504.465H490.364V518.566H504.465V504.465Z" fill="white"/>
<path d="M532.667 504.465H518.566V518.566H532.667V504.465Z" fill="white"/>
<path d="M546.769 504.465H532.667V518.566H546.769V504.465Z" fill="white"/>
<path d="M166.04 518.566H151.939V532.667H166.04V518.566Z" fill="white"/>
<path d="M180.141 518.566H166.04V532.667H180.141V518.566Z" fill="white"/>
<path d="M194.242 518.566H180.141V532.667H194.242V518.566Z" fill="white"/>
<path d="M292.949 518.566H278.848V532.667H292.949V518.566Z" fill="white"/>
<path d="M307.051 518.566H292.949V532.667H307.051V518.566Z" fill="white"/>
<path d="M363.455 518.566H349.354V532.667H363.455V518.566Z" fill="white"/>
<path d="M419.859 518.566H405.758V532.667H419.859V518.566Z" fill="white"/>
<path d="M433.96 518.566H419.859V532.667H433.96V518.566Z" fill="white"/>
<path d="M448.061 518.566H433.96V532.667H448.061V518.566Z" fill="white"/>
<path d="M476.263 518.566H462.162V532.667H476.263V518.566Z" fill="white"/>
<path d="M490.364 518.566H476.263V532.667H490.364V518.566Z" fill="white"/>
<path d="M504.465 518.566H490.364V532.667H504.465V518.566Z" fill="white"/>
<path d="M546.769 518.566H532.667V532.667H546.769V518.566Z" fill="white"/>
<path d="M166.04 532.667H151.939V546.769H166.04V532.667Z" fill="white"/>
<path d="M180.141 532.667H166.04V546.769H180.141V532.667Z" fill="white"/>
<path d="M208.343 532.667H194.242V546.769H208.343V532.667Z" fill="white"/>
<path d="M236.545 532.667H222.444V546.769H236.545V532.667Z" fill="white"/>
<path d="M250.646 532.667H236.545V546.769H250.646V532.667Z" fill="white"/>
<path d="M307.051 532.667H292.949V546.769H307.051V532.667Z" fill="white"/>
<path d="M321.152 532.667H307.051V546.769H321.152V532.667Z" fill="white"/>
<path d="M363.455 532.667H349.354V546.769H363.455V532.667Z" fill="white"/>
<path d="M377.556 532.667H363.455V546.769H377.556V532.667Z" fill="white"/>
<path d="M391.657 532.667H377.556V546.769H391.657V532.667Z" fill="white"/>
<path d="M405.758 532.667H391.657V546.769H405.758V532.667Z" fill="white"/>
<path d="M518.566 532.667H504.465V546.769H518.566V532.667Z" fill="white"/>
<path d="M532.667 532.667H518.566V546.769H532.667V532.667Z" fill="white"/>
<path d="M208.343 546.768H194.242V560.87H208.343V546.768Z" fill="white"/>
<path d="M250.646 546.768H236.545V560.87H250.646V546.768Z" fill="white"/>
<path d="M264.747 546.768H250.646V560.87H264.747V546.768Z" fill="white"/>
<path d="M292.949 546.768H278.848V560.87H292.949V546.768Z" fill="white"/>
<path d="M335.253 546.768H321.152V560.87H335.253V546.768Z" fill="white"/>
<path d="M377.556 546.768H363.455V560.87H377.556V546.768Z" fill="white"/>
<path d="M391.657 546.768H377.556V560.87H391.657V546.768Z" fill="white"/>
<path d="M405.758 546.768H391.657V560.87H405.758V546.768Z" fill="white"/>
<path d="M462.162 546.768H448.061V560.87H462.162V546.768Z" fill="white"/>
<path d="M518.566 546.768H504.465V560.87H518.566V546.768Z" fill="white"/>
<path d="M532.667 546.768H518.566V560.87H532.667V546.768Z" fill="white"/>
<path d="M546.769 546.768H532.667V560.87H546.769V546.768Z" fill="white"/>
<path d="M560.87 546.768H546.769V560.87H560.87V546.768Z" fill="white"/>
</mask>
<g mask="url(#mask1_1_6)">
<path d="M600 0H0V600H600V0Z" fill="black"/>
</g>
<mask id="mask2_1_6" style="mask-type:luminance" maskUnits="userSpaceOnUse" x="39" y="39" width="99" height="99">
<path fill-rule="evenodd" clip-rule="evenodd" d="M39.1304 39.1304V137.838H137.838V39.1304H39.1304ZM53.2315 53.2315H123.737V123.737H53.2315V53.2315Z" fill="white"/>
</mask>
<g mask="url(#mask2_1_6)">
<path d="M137.838 39.1304H39.1304V137.838H137.838V39.1304Z" fill="black"/>
</g>
<mask id="mask3_1_6" style="mask-type:luminance" maskUnits="userSpaceOnUse" x="67" y="67" width="43" height="43">
<path d="M109.636 67.3326H67.3325V109.636H109.636V67.3326Z" fill="white"/>
</mask>
<g mask="url(#mask3_1_6)">
<path d="M109.636 67.3326H67.3325V109.636H109.636V67.3326Z" fill="black"/>
</g>
<mask id="mask4_1_6" style="mask-type:luminance" maskUnits="userSpaceOnUse" x="462" y="39" width="99" height="99">
<path fill-rule="evenodd" clip-rule="evenodd" d="M560.87 39.1305L462.162 39.1305V137.838H560.87V39.1305ZM546.768 53.2315V123.737H476.263V53.2315L546.768 53.2315Z" fill="white"/>
</mask>
<g mask="url(#mask4_1_6)">
<path d="M560.869 39.1305H462.162V137.838H560.869V39.1305Z" fill="black"/>
</g>
<mask id="mask5_1_6" style="mask-type:luminance" maskUnits="userSpaceOnUse" x="490" y="67" width="43" height="43">
<path d="M532.667 109.636V67.3325H490.364V109.636H532.667Z" fill="white"/>
</mask>
<g mask="url(#mask5_1_6)">
<path d="M532.667 67.3325H490.364V109.636H532.667V67.3325Z" fill="black"/>
</g>
<mask id="mask6_1_6" style="mask-type:luminance" maskUnits="userSpaceOnUse" x="39" y="462" width="99" height="99">
<path fill-rule="evenodd" clip-rule="evenodd" d="M39.1304 560.87H137.838V462.162H39.1304L39.1304 560.87ZM53.2314 546.769L53.2314 476.263H123.737V546.769H53.2314Z" fill="white"/>
</mask>
<g mask="url(#mask6_1_6)">
<path d="M137.838 462.162H39.1304V560.87H137.838V462.162Z" fill="black"/>
</g>
<mask id="mask7_1_6" style="mask-type:luminance" maskUnits="userSpaceOnUse" x="67" y="490" width="43" height="43">
<path d="M67.3325 490.364V532.667H109.636V490.364H67.3325Z" fill="white"/>
</mask>
<g mask="url(#mask7_1_6)">
<path d="M109.636 490.364H67.3325V532.667H109.636V490.364Z" fill="black"/>
</g>
</g>
<defs>
<clipPath id="clip0_1_6">
<rect width="600" height="600" fill="white"/>
</clipPath>
</defs>
</svg>
