<svg width="600" height="600" viewBox="0 0 600 600" fill="none" xmlns="http://www.w3.org/2000/svg">
<g clip-path="url(#clip0_1_6)">
<mask id="mask0_1_6" style="mask-type:luminance" maskUnits="userSpaceOnUse" x="0" y="0" width="600" height="600">
<path d="M600 0H0V600H600V0Z" fill="white"/>
</mask>
<g mask="url(#mask0_1_6)">
<path d="M600 0H0V600H600V0Z" fill="white"/>
</g>
<mask id="mask1_1_6" style="mask-type:luminance" maskUnits="userSpaceOnUse" x="39" y="39" width="522" height="522">
<path d="M153.659 39.1304H140.933V51.8558H153.659V39.1304Z" fill="white"/>
<path d="M166.384 39.1304H153.659V51.8558H166.384V39.1304Z" fill="white"/>
<path d="M179.109 39.1304H166.384V51.8558H179.109V39.1304Z" fill="white"/>
<path d="M191.835 39.1304H179.109V51.8558H191.835V39.1304Z" fill="white"/>
<path d="M204.56 39.1304H191.835V51.8558H204.56V39.1304Z" fill="white"/>
<path d="M242.736 39.1304H230.011V51.8558H242.736V39.1304Z" fill="white"/>
<path d="M255.461 39.1304H242.736V51.8558H255.461V39.1304Z" fill="white"/>
<path d="M268.187 39.1304H255.461V51.8558H268.187V39.1304Z" fill="white"/>
<path d="M306.363 39.1304H293.637V51.8558H306.363V39.1304Z" fill="white"/>
<path d="M319.088 39.1304H306.363V51.8558H319.088V39.1304Z" fill="white"/>
<path d="M331.813 39.1304H319.088V51.8558H331.813V39.1304Z" fill="white"/>
<path d="M357.264 39.1304H344.539V51.8558H357.264V39.1304Z" fill="white"/>
<path d="M369.989 39.1304H357.264V51.8558H369.989V39.1304Z" fill="white"/>
<path d="M382.715 39.1304H369.989V51.8558H382.715V39.1304Z" fill="white"/>
<path d="M395.44 39.1304H382.715V51.8558H395.44V39.1304Z" fill="white"/>
<path d="M420.891 39.1304H408.165V51.8558H420.891V39.1304Z" fill="white"/>
<path d="M433.616 39.1304H420.891V51.8558H433.616V39.1304Z" fill="white"/>
<path d="M446.342 39.1304H433.616V51.8558H446.342V39.1304Z" fill="white"/>
<path d="M166.384 51.8558H153.659V64.5811H166.384V51.8558Z" fill="white"/>
<path d="M191.835 51.8558H179.109V64.5811H191.835V51.8558Z" fill="white"/>
<path d="M204.56 51.8558H191.835V64.5811H204.56V51.8558Z" fill="white"/>
<path d="M242.736 51.8558H230.011V64.5811H242.736V51.8558Z" fill="white"/>
<path d="M255.461 51.8558H242.736V64.5811H255.461V51.8558Z" fill="white"/>
<path d="M268.187 51.8558H255.461V64.5811H268.187V51.8558Z" fill="white"/>
<path d="M280.912 51.8558H268.187V64.5811H280.912V51.8558Z" fill="white"/>
<path d="M293.637 51.8558H280.912V64.5811H293.637V51.8558Z" fill="white"/>
<path d="M306.363 51.8558H293.637V64.5811H306.363V51.8558Z" fill="white"/>
<path d="M344.539 51.8558H331.813V64.5811H344.539V51.8558Z" fill="white"/>
<path d="M369.989 51.8558H357.264V64.5811H369.989V51.8558Z" fill="white"/>
<path d="M382.715 51.8558H369.989V64.5811H382.715V51.8558Z" fill="white"/>
<path d="M395.44 51.8558H382.715V64.5811H395.44V51.8558Z" fill="white"/>
<path d="M408.165 51.8558H395.44V64.5811H408.165V51.8558Z" fill="white"/>
<path d="M433.616 51.8558H420.891V64.5811H433.616V51.8558Z" fill="white"/>
<path d="M459.067 51.8558H446.341V64.5811H459.067V51.8558Z" fill="white"/>
<path d="M153.659 64.5811H140.933V77.3065H153.659V64.5811Z" fill="white"/>
<path d="M204.56 64.5811H191.835V77.3065H204.56V64.5811Z" fill="white"/>
<path d="M217.285 64.5811H204.56V77.3065H217.285V64.5811Z" fill="white"/>
<path d="M255.461 64.5811H242.736V77.3065H255.461V64.5811Z" fill="white"/>
<path d="M280.912 64.5811H268.187V77.3065H280.912V64.5811Z" fill="white"/>
<path d="M293.637 64.5811H280.912V77.3065H293.637V64.5811Z" fill="white"/>
<path d="M357.264 64.5811H344.539V77.3065H357.264V64.5811Z" fill="white"/>
<path d="M369.989 64.5811H357.264V77.3065H369.989V64.5811Z" fill="white"/>
<path d="M395.44 64.5811H382.715V77.3065H395.44V64.5811Z" fill="white"/>
<path d="M408.165 64.5811H395.44V77.3065H408.165V64.5811Z" fill="white"/>
<path d="M420.891 64.5811H408.165V77.3065H420.891V64.5811Z" fill="white"/>
<path d="M433.616 64.5811H420.891V77.3065H433.616V64.5811Z" fill="white"/>
<path d="M459.067 64.5811H446.341V77.3065H459.067V64.5811Z" fill="white"/>
<path d="M153.659 77.3065H140.933V90.0318H153.659V77.3065Z" fill="white"/>
<path d="M166.384 77.3065H153.659V90.0318H166.384V77.3065Z" fill="white"/>
<path d="M179.109 77.3065H166.384V90.0318H179.109V77.3065Z" fill="white"/>
<path d="M204.56 77.3065H191.835V90.0318H204.56V77.3065Z" fill="white"/>
<path d="M217.285 77.3065H204.56V90.0318H217.285V77.3065Z" fill="white"/>
<path d="M230.011 77.3065H217.285V90.0318H230.011V77.3065Z" fill="white"/>
<path d="M242.736 77.3065H230.011V90.0318H242.736V77.3065Z" fill="white"/>
<path d="M255.461 77.3065H242.736V90.0318H255.461V77.3065Z" fill="white"/>
<path d="M306.363 77.3065H293.637V90.0318H306.363V77.3065Z" fill="white"/>
<path d="M319.088 77.3065H306.363V90.0318H319.088V77.3065Z" fill="white"/>
<path d="M331.813 77.3065H319.088V90.0318H331.813V77.3065Z" fill="white"/>
<path d="M357.264 77.3065H344.539V90.0318H357.264V77.3065Z" fill="white"/>
<path d="M369.989 77.3065H357.264V90.0318H369.989V77.3065Z" fill="white"/>
<path d="M382.715 77.3065H369.989V90.0318H382.715V77.3065Z" fill="white"/>
<path d="M408.165 77.3065H395.44V90.0318H408.165V77.3065Z" fill="white"/>
<path d="M433.616 77.3065H420.891V90.0318H433.616V77.3065Z" fill="white"/>
<path d="M459.067 77.3065H446.341V90.0318H459.067V77.3065Z" fill="white"/>
<path d="M191.835 90.0318H179.109V102.757H191.835V90.0318Z" fill="white"/>
<path d="M204.56 90.0318H191.835V102.757H204.56V90.0318Z" fill="white"/>
<path d="M217.285 90.0318H204.56V102.757H217.285V90.0318Z" fill="white"/>
<path d="M255.461 90.0318H242.736V102.757H255.461V90.0318Z" fill="white"/>
<path d="M280.912 90.0318H268.187V102.757H280.912V90.0318Z" fill="white"/>
<path d="M293.637 90.0318H280.912V102.757H293.637V90.0318Z" fill="white"/>
<path d="M306.363 90.0318H293.637V102.757H306.363V90.0318Z" fill="white"/>
<path d="M344.539 90.0318H331.813V102.757H344.539V90.0318Z" fill="white"/>
<path d="M357.264 90.0318H344.539V102.757H357.264V90.0318Z" fill="white"/>
<path d="M369.989 90.0318H357.264V102.757H369.989V90.0318Z" fill="white"/>
<path d="M382.715 90.0318H369.989V102.757H382.715V90.0318Z" fill="white"/>
<path d="M395.44 90.0318H382.715V102.757H395.44V90.0318Z" fill="white"/>
<path d="M408.165 90.0318H395.44V102.757H408.165V90.0318Z" fill="white"/>
<path d="M433.616 90.0318H420.891V102.757H433.616V90.0318Z" fill="white"/>
<path d="M153.659 102.757H140.933V115.482H153.659V102.757Z" fill="white"/>
<path d="M166.384 102.757H153.659V115.482H166.384V102.757Z" fill="white"/>
<path d="M179.109 102.757H166.384V115.482H179.109V102.757Z" fill="white"/>
<path d="M204.56 102.757H191.835V115.482H204.56V102.757Z" fill="white"/>
<path d="M217.285 102.757H204.56V115.482H217.285V102.757Z" fill="white"/>
<path d="M230.011 102.757H217.285V115.482H230.011V102.757Z" fill="white"/>
<path d="M242.736 102.757H230.011V115.482H242.736V102.757Z" fill="white"/>
<path d="M255.461 102.757H242.736V115.482H255.461V102.757Z" fill="white"/>
<path d="M268.187 102.757H255.461V115.482H268.187V102.757Z" fill="white"/>
<path d="M280.912 102.757H268.187V115.482H280.912V102.757Z" fill="white"/>
<path d="M293.637 102.757H280.912V115.482H293.637V102.757Z" fill="white"/>
<path d="M344.539 102.757H331.813V115.482H344.539V102.757Z" fill="white"/>
<path d="M395.44 102.757H382.715V115.482H395.44V102.757Z" fill="white"/>
<path d="M446.342 102.757H433.616V115.482H446.342V102.757Z" fill="white"/>
<path d="M153.659 115.482H140.933V128.208H153.659V115.482Z" fill="white"/>
<path d="M179.109 115.482H166.384V128.208H179.109V115.482Z" fill="white"/>
<path d="M204.56 115.482H191.835V128.208H204.56V115.482Z" fill="white"/>
<path d="M230.011 115.482H217.285V128.208H230.011V115.482Z" fill="white"/>
<path d="M255.461 115.482H242.736V128.208H255.461V115.482Z" fill="white"/>
<path d="M280.912 115.482H268.187V128.208H280.912V115.482Z" fill="white"/>
<path d="M306.363 115.482H293.637V128.208H306.363V115.482Z" fill="white"/>
<path d="M331.813 115.482H319.088V128.208H331.813V115.482Z" fill="white"/>
<path d="M357.264 115.482H344.539V128.208H357.264V115.482Z" fill="white"/>
<path d="M382.715 115.482H369.989V128.208H382.715V115.482Z" fill="white"/>
<path d="M408.165 115.482H395.44V128.208H408.165V115.482Z" fill="white"/>
<path d="M433.616 115.482H420.891V128.208H433.616V115.482Z" fill="white"/>
<path d="M459.067 115.482H446.341V128.208H459.067V115.482Z" fill="white"/>
<path d="M153.659 128.208H140.933V140.933H153.659V128.208Z" fill="white"/>
<path d="M179.109 128.208H166.384V140.933H179.109V128.208Z" fill="white"/>
<path d="M191.835 128.208H179.109V140.933H191.835V128.208Z" fill="white"/>
<path d="M242.736 128.208H230.011V140.933H242.736V128.208Z" fill="white"/>
<path d="M280.912 128.208H268.187V140.933H280.912V128.208Z" fill="white"/>
<path d="M306.363 128.208H293.637V140.933H306.363V128.208Z" fill="white"/>
<path d="M319.088 128.208H306.363V140.933H319.088V128.208Z" fill="white"/>
<path d="M344.539 128.208H331.813V140.933H344.539V128.208Z" fill="white"/>
<path d="M357.264 128.208H344.539V140.933H357.264V128.208Z" fill="white"/>
<path d="M382.715 128.208H369.989V140.933H382.715V128.208Z" fill="white"/>
<path d="M395.44 128.208H382.715V140.933H395.44V128.208Z" fill="white"/>
<path d="M408.165 128.208H395.44V140.933H408.165V128.208Z" fill="white"/>
<path d="M420.891 128.208H408.165V140.933H420.891V128.208Z" fill="white"/>
<path d="M446.342 128.208H433.616V140.933H446.342V128.208Z" fill="white"/>
<path d="M459.067 128.208H446.341V140.933H459.067V128.208Z" fill="white"/>
<path d="M64.5811 140.933H51.8558V153.659H64.5811V140.933Z" fill="white"/>
<path d="M90.0318 140.933H77.3065V153.659H90.0318V140.933Z" fill="white"/>
<path d="M115.483 140.933H102.757V153.659H115.483V140.933Z" fill="white"/>
<path d="M128.208 140.933H115.483V153.659H128.208V140.933Z" fill="white"/>
<path d="M140.933 140.933H128.208V153.659H140.933V140.933Z" fill="white"/>
<path d="M153.659 140.933H140.933V153.659H153.659V140.933Z" fill="white"/>
<path d="M242.736 140.933H230.011V153.659H242.736V140.933Z" fill="white"/>
<path d="M255.461 140.933H242.736V153.659H255.461V140.933Z" fill="white"/>
<path d="M280.912 140.933H268.187V153.659H280.912V140.933Z" fill="white"/>
<path d="M306.363 140.933H293.637V153.659H306.363V140.933Z" fill="white"/>
<path d="M369.989 140.933H357.264V153.659H369.989V140.933Z" fill="white"/>
<path d="M382.715 140.933H369.989V153.659H382.715V140.933Z" fill="white"/>
<path d="M408.165 140.933H395.44V153.659H408.165V140.933Z" fill="white"/>
<path d="M446.342 140.933H433.616V153.659H446.342V140.933Z" fill="white"/>
<path d="M459.067 140.933H446.341V153.659H459.067V140.933Z" fill="white"/>
<path d="M471.792 140.933H459.067V153.659H471.792V140.933Z" fill="white"/>
<path d="M484.517 140.933H471.792V153.659H484.517V140.933Z" fill="white"/>
<path d="M497.243 140.933H484.518V153.659H497.243V140.933Z" fill="white"/>
<path d="M522.693 140.933H509.968V153.659H522.693V140.933Z" fill="white"/>
<path d="M535.419 140.933H522.693V153.659H535.419V140.933Z" fill="white"/>
<path d="M560.87 140.933H548.144V153.659H560.87V140.933Z" fill="white"/>
<path d="M51.8558 153.659H39.1304V166.384H51.8558V153.659Z" fill="white"/>
<path d="M64.5811 153.659H51.8558V166.384H64.5811V153.659Z" fill="white"/>
<path d="M115.483 153.659H102.757V166.384H115.483V153.659Z" fill="white"/>
<path d="M153.659 153.659H140.933V166.384H153.659V153.659Z" fill="white"/>
<path d="M179.109 153.659H166.384V166.384H179.109V153.659Z" fill="white"/>
<path d="M204.56 153.659H191.835V166.384H204.56V153.659Z" fill="white"/>
<path d="M217.285 153.659H204.56V166.384H217.285V153.659Z" fill="white"/>
<path d="M230.011 153.659H217.285V166.384H230.011V153.659Z" fill="white"/>
<path d="M331.813 153.659H319.088V166.384H331.813V153.659Z" fill="white"/>
<path d="M369.989 153.659H357.264V166.384H369.989V153.659Z" fill="white"/>
<path d="M408.165 153.659H395.44V166.384H408.165V153.659Z" fill="white"/>
<path d="M420.891 153.659H408.165V166.384H420.891V153.659Z" fill="white"/>
<path d="M459.067 153.659H446.341V166.384H459.067V153.659Z" fill="white"/>
<path d="M484.517 153.659H471.792V166.384H484.517V153.659Z" fill="white"/>
<path d="M497.243 153.659H484.518V166.384H497.243V153.659Z" fill="white"/>
<path d="M522.693 153.659H509.968V166.384H522.693V153.659Z" fill="white"/>
<path d="M535.419 153.659H522.693V166.384H535.419V153.659Z" fill="white"/>
<path d="M548.144 153.659H535.419V166.384H548.144V153.659Z" fill="white"/>
<path d="M560.87 153.659H548.144V166.384H560.87V153.659Z" fill="white"/>
<path d="M77.3065 166.384H64.5811V179.109H77.3065V166.384Z" fill="white"/>
<path d="M90.0318 166.384H77.3065V179.109H90.0318V166.384Z" fill="white"/>
<path d="M102.757 166.384H90.0319V179.109H102.757V166.384Z" fill="white"/>
<path d="M115.483 166.384H102.757V179.109H115.483V166.384Z" fill="white"/>
<path d="M128.208 166.384H115.483V179.109H128.208V166.384Z" fill="white"/>
<path d="M140.933 166.384H128.208V179.109H140.933V166.384Z" fill="white"/>
<path d="M153.659 166.384H140.933V179.109H153.659V166.384Z" fill="white"/>
<path d="M166.384 166.384H153.659V179.109H166.384V166.384Z" fill="white"/>
<path d="M179.109 166.384H166.384V179.109H179.109V166.384Z" fill="white"/>
<path d="M204.56 166.384H191.835V179.109H204.56V166.384Z" fill="white"/>
<path d="M255.461 166.384H242.736V179.109H255.461V166.384Z" fill="white"/>
<path d="M280.912 166.384H268.187V179.109H280.912V166.384Z" fill="white"/>
<path d="M344.539 166.384H331.813V179.109H344.539V166.384Z" fill="white"/>
<path d="M369.989 166.384H357.264V179.109H369.989V166.384Z" fill="white"/>
<path d="M382.715 166.384H369.989V179.109H382.715V166.384Z" fill="white"/>
<path d="M420.891 166.384H408.165V179.109H420.891V166.384Z" fill="white"/>
<path d="M433.616 166.384H420.891V179.109H433.616V166.384Z" fill="white"/>
<path d="M446.342 166.384H433.616V179.109H446.342V166.384Z" fill="white"/>
<path d="M471.792 166.384H459.067V179.109H471.792V166.384Z" fill="white"/>
<path d="M497.243 166.384H484.518V179.109H497.243V166.384Z" fill="white"/>
<path d="M522.693 166.384H509.968V179.109H522.693V166.384Z" fill="white"/>
<path d="M535.419 166.384H522.693V179.109H535.419V166.384Z" fill="white"/>
<path d="M548.144 166.384H535.419V179.109H548.144V166.384Z" fill="white"/>
<path d="M51.8558 179.109H39.1304V191.835H51.8558V179.109Z" fill="white"/>
<path d="M64.5811 179.109H51.8558V191.835H64.5811V179.109Z" fill="white"/>
<path d="M77.3065 179.109H64.5811V191.835H77.3065V179.109Z" fill="white"/>
<path d="M90.0318 179.109H77.3065V191.835H90.0318V179.109Z" fill="white"/>
<path d="M102.757 179.109H90.0319V191.835H102.757V179.109Z" fill="white"/>
<path d="M140.933 179.109H128.208V191.835H140.933V179.109Z" fill="white"/>
<path d="M153.659 179.109H140.933V191.835H153.659V179.109Z" fill="white"/>
<path d="M166.384 179.109H153.659V191.835H166.384V179.109Z" fill="white"/>
<path d="M179.109 179.109H166.384V191.835H179.109V179.109Z" fill="white"/>
<path d="M217.285 179.109H204.56V191.835H217.285V179.109Z" fill="white"/>
<path d="M268.187 179.109H255.461V191.835H268.187V179.109Z" fill="white"/>
<path d="M344.539 179.109H331.813V191.835H344.539V179.109Z" fill="white"/>
<path d="M369.989 179.109H357.264V191.835H369.989V179.109Z" fill="white"/>
<path d="M382.715 179.109H369.989V191.835H382.715V179.109Z" fill="white"/>
<path d="M408.165 179.109H395.44V191.835H408.165V179.109Z" fill="white"/>
<path d="M535.419 179.109H522.693V191.835H535.419V179.109Z" fill="white"/>
<path d="M548.144 179.109H535.419V191.835H548.144V179.109Z" fill="white"/>
<path d="M51.8558 191.835H39.1304V204.56H51.8558V191.835Z" fill="white"/>
<path d="M64.5811 191.835H51.8558V204.56H64.5811V191.835Z" fill="white"/>
<path d="M102.757 191.835H90.0319V204.56H102.757V191.835Z" fill="white"/>
<path d="M128.208 191.835H115.483V204.56H128.208V191.835Z" fill="white"/>
<path d="M140.933 191.835H128.208V204.56H140.933V191.835Z" fill="white"/>
<path d="M153.659 191.835H140.933V204.56H153.659V191.835Z" fill="white"/>
<path d="M191.835 191.835H179.109V204.56H191.835V191.835Z" fill="white"/>
<path d="M204.56 191.835H191.835V204.56H204.56V191.835Z" fill="white"/>
<path d="M217.285 191.835H204.56V204.56H217.285V191.835Z" fill="white"/>
<path d="M242.736 191.835H230.011V204.56H242.736V191.835Z" fill="white"/>
<path d="M293.637 191.835H280.912V204.56H293.637V191.835Z" fill="white"/>
<path d="M331.813 191.835H319.088V204.56H331.813V191.835Z" fill="white"/>
<path d="M344.539 191.835H331.813V204.56H344.539V191.835Z" fill="white"/>
<path d="M357.264 191.835H344.539V204.56H357.264V191.835Z" fill="white"/>
<path d="M369.989 191.835H357.264V204.56H369.989V191.835Z" fill="white"/>
<path d="M395.44 191.835H382.715V204.56H395.44V191.835Z" fill="white"/>
<path d="M420.891 191.835H408.165V204.56H420.891V191.835Z" fill="white"/>
<path d="M446.342 191.835H433.616V204.56H446.342V191.835Z" fill="white"/>
<path d="M459.067 191.835H446.341V204.56H459.067V191.835Z" fill="white"/>
<path d="M484.517 191.835H471.792V204.56H484.517V191.835Z" fill="white"/>
<path d="M522.693 191.835H509.968V204.56H522.693V191.835Z" fill="white"/>
<path d="M548.144 191.835H535.419V204.56H548.144V191.835Z" fill="white"/>
<path d="M560.87 191.835H548.144V204.56H560.87V191.835Z" fill="white"/>
<path d="M51.8558 204.56H39.1304V217.285H51.8558V204.56Z" fill="white"/>
<path d="M64.5811 204.56H51.8558V217.285H64.5811V204.56Z" fill="white"/>
<path d="M77.3065 204.56H64.5811V217.285H77.3065V204.56Z" fill="white"/>
<path d="M140.933 204.56H128.208V217.285H140.933V204.56Z" fill="white"/>
<path d="M153.659 204.56H140.933V217.285H153.659V204.56Z" fill="white"/>
<path d="M166.384 204.56H153.659V217.285H166.384V204.56Z" fill="white"/>
<path d="M179.109 204.56H166.384V217.285H179.109V204.56Z" fill="white"/>
<path d="M191.835 204.56H179.109V217.285H191.835V204.56Z" fill="white"/>
<path d="M217.285 204.56H204.56V217.285H217.285V204.56Z" fill="white"/>
<path d="M255.461 204.56H242.736V217.285H255.461V204.56Z" fill="white"/>
<path d="M293.637 204.56H280.912V217.285H293.637V204.56Z" fill="white"/>
<path d="M331.813 204.56H319.088V217.285H331.813V204.56Z" fill="white"/>
<path d="M344.539 204.56H331.813V217.285H344.539V204.56Z" fill="white"/>
<path d="M357.264 204.56H344.539V217.285H357.264V204.56Z" fill="white"/>
<path d="M382.715 204.56H369.989V217.285H382.715V204.56Z" fill="white"/>
<path d="M395.44 204.56H382.715V217.285H395.44V204.56Z" fill="white"/>
<path d="M408.165 204.56H395.44V217.285H408.165V204.56Z" fill="white"/>
<path d="M420.891 204.56H408.165V217.285H420.891V204.56Z" fill="white"/>
<path d="M446.342 204.56H433.616V217.285H446.342V204.56Z" fill="white"/>
<path d="M459.067 204.56H446.341V217.285H459.067V204.56Z" fill="white"/>
<path d="M471.792 204.56H459.067V217.285H471.792V204.56Z" fill="white"/>
<path d="M497.243 204.56H484.518V217.285H497.243V204.56Z" fill="white"/>
<path d="M522.693 204.56H509.968V217.285H522.693V204.56Z" fill="white"/>
<path d="M535.419 204.56H522.693V217.285H535.419V204.56Z" fill="white"/>
<path d="M548.144 204.56H535.419V217.285H548.144V204.56Z" fill="white"/>
<path d="M64.5811 217.285H51.8558V230.011H64.5811V217.285Z" fill="white"/>
<path d="M77.3065 217.285H64.5811V230.011H77.3065V217.285Z" fill="white"/>
<path d="M90.0318 217.285H77.3065V230.011H90.0318V217.285Z" fill="white"/>
<path d="M115.483 217.285H102.757V230.011H115.483V217.285Z" fill="white"/>
<path d="M128.208 217.285H115.483V230.011H128.208V217.285Z" fill="white"/>
<path d="M140.933 217.285H128.208V230.011H140.933V217.285Z" fill="white"/>
<path d="M153.659 217.285H140.933V230.011H153.659V217.285Z" fill="white"/>
<path d="M166.384 217.285H153.659V230.011H166.384V217.285Z" fill="white"/>
<path d="M217.285 217.285H204.56V230.011H217.285V217.285Z" fill="white"/>
<path d="M268.187 217.285H255.461V230.011H268.187V217.285Z" fill="white"/>
<path d="M280.912 217.285H268.187V230.011H280.912V217.285Z" fill="white"/>
<path d="M306.363 217.285H293.637V230.011H306.363V217.285Z" fill="white"/>
<path d="M319.088 217.285H306.363V230.011H319.088V217.285Z" fill="white"/>
<path d="M357.264 217.285H344.539V230.011H357.264V217.285Z" fill="white"/>
<path d="M369.989 217.285H357.264V230.011H369.989V217.285Z" fill="white"/>
<path d="M382.715 217.285H369.989V230.011H382.715V217.285Z" fill="white"/>
<path d="M433.616 217.285H420.891V230.011H433.616V217.285Z" fill="white"/>
<path d="M459.067 217.285H446.341V230.011H459.067V217.285Z" fill="white"/>
<path d="M484.517 217.285H471.792V230.011H484.517V217.285Z" fill="white"/>
<path d="M509.968 217.285H497.243V230.011H509.968V217.285Z" fill="white"/>
<path d="M535.419 217.285H522.693V230.011H535.419V217.285Z" fill="white"/>
<path d="M548.144 217.285H535.419V230.011H548.144V217.285Z" fill="white"/>
<path d="M560.87 217.285H548.144V230.011H560.87V217.285Z" fill="white"/>
<path d="M51.8558 230.011H39.1304V242.736H51.8558V230.011Z" fill="white"/>
<path d="M77.3065 230.011H64.5811V242.736H77.3065V230.011Z" fill="white"/>
<path d="M179.109 230.011H166.384V242.736H179.109V230.011Z" fill="white"/>
<path d="M191.835 230.011H179.109V242.736H191.835V230.011Z" fill="white"/>
<path d="M280.912 230.011H268.187V242.736H280.912V230.011Z" fill="white"/>
<path d="M293.637 230.011H280.912V242.736H293.637V230.011Z" fill="white"/>
<path d="M319.088 230.011H306.363V242.736H319.088V230.011Z" fill="white"/>
<path d="M331.813 230.011H319.088V242.736H331.813V230.011Z" fill="white"/>
<path d="M357.264 230.011H344.539V242.736H357.264V230.011Z" fill="white"/>
<path d="M369.989 230.011H357.264V242.736H369.989V230.011Z" fill="white"/>
<path d="M395.44 230.011H382.715V242.736H395.44V230.011Z" fill="white"/>
<path d="M420.891 230.011H408.165V242.736H420.891V230.011Z" fill="white"/>
<path d="M433.616 230.011H420.891V242.736H433.616V230.011Z" fill="white"/>
<path d="M446.342 230.011H433.616V242.736H446.342V230.011Z" fill="white"/>
<path d="M484.517 230.011H471.792V242.736H484.517V230.011Z" fill="white"/>
<path d="M509.968 230.011H497.243V242.736H509.968V230.011Z" fill="white"/>
<path d="M548.144 230.011H535.419V242.736H548.144V230.011Z" fill="white"/>
<path d="M77.3065 242.736H64.5811V255.461H77.3065V242.736Z" fill="white"/>
<path d="M115.483 242.736H102.757V255.461H115.483V242.736Z" fill="white"/>
<path d="M128.208 242.736H115.483V255.461H128.208V242.736Z" fill="white"/>
<path d="M153.659 242.736H140.933V255.461H153.659V242.736Z" fill="white"/>
<path d="M166.384 242.736H153.659V255.461H166.384V242.736Z" fill="white"/>
<path d="M179.109 242.736H166.384V255.461H179.109V242.736Z" fill="white"/>
<path d="M204.56 242.736H191.835V255.461H204.56V242.736Z" fill="white"/>
<path d="M217.285 242.736H204.56V255.461H217.285V242.736Z" fill="white"/>
<path d="M242.736 242.736H230.011V255.461H242.736V242.736Z" fill="white"/>
<path d="M255.461 242.736H242.736V255.461H255.461V242.736Z" fill="white"/>
<path d="M280.912 242.736H268.187V255.461H280.912V242.736Z" fill="white"/>
<path d="M331.813 242.736H319.088V255.461H331.813V242.736Z" fill="white"/>
<path d="M344.539 242.736H331.813V255.461H344.539V242.736Z" fill="white"/>
<path d="M357.264 242.736H344.539V255.461H357.264V242.736Z" fill="white"/>
<path d="M408.165 242.736H395.44V255.461H408.165V242.736Z" fill="white"/>
<path d="M420.891 242.736H408.165V255.461H420.891V242.736Z" fill="white"/>
<path d="M446.342 242.736H433.616V255.461H446.342V242.736Z" fill="white"/>
<path d="M497.243 242.736H484.518V255.461H497.243V242.736Z" fill="white"/>
<path d="M522.693 242.736H509.968V255.461H522.693V242.736Z" fill="white"/>
<path d="M548.144 242.736H535.419V255.461H548.144V242.736Z" fill="white"/>
<path d="M51.8558 255.461H39.1304V268.187H51.8558V255.461Z" fill="white"/>
<path d="M64.5811 255.461H51.8558V268.187H64.5811V255.461Z" fill="white"/>
<path d="M90.0318 255.461H77.3065V268.187H90.0318V255.461Z" fill="white"/>
<path d="M102.757 255.461H90.0319V268.187H102.757V255.461Z" fill="white"/>
<path d="M153.659 255.461H140.933V268.187H153.659V255.461Z" fill="white"/>
<path d="M166.384 255.461H153.659V268.187H166.384V255.461Z" fill="white"/>
<path d="M179.109 255.461H166.384V268.187H179.109V255.461Z" fill="white"/>
<path d="M191.835 255.461H179.109V268.187H191.835V255.461Z" fill="white"/>
<path d="M204.56 255.461H191.835V268.187H204.56V255.461Z" fill="white"/>
<path d="M217.285 255.461H204.56V268.187H217.285V255.461Z" fill="white"/>
<path d="M230.011 255.461H217.285V268.187H230.011V255.461Z" fill="white"/>
<path d="M242.736 255.461H230.011V268.187H242.736V255.461Z" fill="white"/>
<path d="M280.912 255.461H268.187V268.187H280.912V255.461Z" fill="white"/>
<path d="M293.637 255.461H280.912V268.187H293.637V255.461Z" fill="white"/>
<path d="M331.813 255.461H319.088V268.187H331.813V255.461Z" fill="white"/>
<path d="M344.539 255.461H331.813V268.187H344.539V255.461Z" fill="white"/>
<path d="M357.264 255.461H344.539V268.187H357.264V255.461Z" fill="white"/>
<path d="M369.989 255.461H357.264V268.187H369.989V255.461Z" fill="white"/>
<path d="M408.165 255.461H395.44V268.187H408.165V255.461Z" fill="white"/>
<path d="M420.891 255.461H408.165V268.187H420.891V255.461Z" fill="white"/>
<path d="M459.067 255.461H446.341V268.187H459.067V255.461Z" fill="white"/>
<path d="M484.517 255.461H471.792V268.187H484.517V255.461Z" fill="white"/>
<path d="M497.243 255.461H484.518V268.187H497.243V255.461Z" fill="white"/>
<path d="M522.693 255.461H509.968V268.187H522.693V255.461Z" fill="white"/>
<path d="M535.419 255.461H522.693V268.187H535.419V255.461Z" fill="white"/>
<path d="M548.144 255.461H535.419V268.187H548.144V255.461Z" fill="white"/>
<path d="M560.87 255.461H548.144V268.187H560.87V255.461Z" fill="white"/>
<path d="M102.757 268.187H90.0319V280.912H102.757V268.187Z" fill="white"/>
<path d="M128.208 268.187H115.483V280.912H128.208V268.187Z" fill="white"/>
<path d="M191.835 268.187H179.109V280.912H191.835V268.187Z" fill="white"/>
<path d="M242.736 268.187H230.011V280.912H242.736V268.187Z" fill="white"/>
<path d="M268.187 268.187H255.461V280.912H268.187V268.187Z" fill="white"/>
<path d="M319.088 268.187H306.363V280.912H319.088V268.187Z" fill="white"/>
<path d="M331.813 268.187H319.088V280.912H331.813V268.187Z" fill="white"/>
<path d="M382.715 268.187H369.989V280.912H382.715V268.187Z" fill="white"/>
<path d="M408.165 268.187H395.44V280.912H408.165V268.187Z" fill="white"/>
<path d="M420.891 268.187H408.165V280.912H420.891V268.187Z" fill="white"/>
<path d="M459.067 268.187H446.341V280.912H459.067V268.187Z" fill="white"/>
<path d="M471.792 268.187H459.067V280.912H471.792V268.187Z" fill="white"/>
<path d="M509.968 268.187H497.243V280.912H509.968V268.187Z" fill="white"/>
<path d="M522.693 268.187H509.968V280.912H522.693V268.187Z" fill="white"/>
<path d="M535.419 268.187H522.693V280.912H535.419V268.187Z" fill="white"/>
<path d="M560.87 268.187H548.144V280.912H560.87V268.187Z" fill="white"/>
<path d="M64.5811 280.912H51.8558V293.637H64.5811V280.912Z" fill="white"/>
<path d="M77.3065 280.912H64.5811V293.637H77.3065V280.912Z" fill="white"/>
<path d="M102.757 280.912H90.0319V293.637H102.757V280.912Z" fill="white"/>
<path d="M140.933 280.912H128.208V293.637H140.933V280.912Z" fill="white"/>
<path d="M179.109 280.912H166.384V293.637H179.109V280.912Z" fill="white"/>
<path d="M204.56 280.912H191.835V293.637H204.56V280.912Z" fill="white"/>
<path d="M230.011 280.912H217.285V293.637H230.011V280.912Z" fill="white"/>
<path d="M242.736 280.912H230.011V293.637H242.736V280.912Z" fill="white"/>
<path d="M280.912 280.912H268.187V293.637H280.912V280.912Z" fill="white"/>
<path d="M331.813 280.912H319.088V293.637H331.813V280.912Z" fill="white"/>
<path d="M382.715 280.912H369.989V293.637H382.715V280.912Z" fill="white"/>
<path d="M420.891 280.912H408.165V293.637H420.891V280.912Z" fill="white"/>
<path d="M433.616 280.912H420.891V293.637H433.616V280.912Z" fill="white"/>
<path d="M459.067 280.912H446.341V293.637H459.067V280.912Z" fill="white"/>
<path d="M497.243 280.912H484.518V293.637H497.243V280.912Z" fill="white"/>
<path d="M522.693 280.912H509.968V293.637H522.693V280.912Z" fill="white"/>
<path d="M560.87 280.912H548.144V293.637H560.87V280.912Z" fill="white"/>
<path d="M64.5811 293.637H51.8558V306.363H64.5811V293.637Z" fill="white"/>
<path d="M90.0318 293.637H77.3065V306.363H90.0318V293.637Z" fill="white"/>
<path d="M102.757 293.637H90.0319V306.363H102.757V293.637Z" fill="white"/>
<path d="M115.483 293.637H102.757V306.363H115.483V293.637Z" fill="white"/>
<path d="M128.208 293.637H115.483V306.363H128.208V293.637Z" fill="white"/>
<path d="M153.659 293.637H140.933V306.363H153.659V293.637Z" fill="white"/>
<path d="M179.109 293.637H166.384V306.363H179.109V293.637Z" fill="white"/>
<path d="M204.56 293.637H191.835V306.363H204.56V293.637Z" fill="white"/>
<path d="M255.461 293.637H242.736V306.363H255.461V293.637Z" fill="white"/>
<path d="M280.912 293.637H268.187V306.363H280.912V293.637Z" fill="white"/>
<path d="M306.363 293.637H293.637V306.363H306.363V293.637Z" fill="white"/>
<path d="M331.813 293.637H319.088V306.363H331.813V293.637Z" fill="white"/>
<path d="M357.264 293.637H344.539V306.363H357.264V293.637Z" fill="white"/>
<path d="M395.44 293.637H382.715V306.363H395.44V293.637Z" fill="white"/>
<path d="M471.792 293.637H459.067V306.363H471.792V293.637Z" fill="white"/>
<path d="M484.517 293.637H471.792V306.363H484.517V293.637Z" fill="white"/>
<path d="M497.243 293.637H484.518V306.363H497.243V293.637Z" fill="white"/>
<path d="M535.419 293.637H522.693V306.363H535.419V293.637Z" fill="white"/>
<path d="M548.144 293.637H535.419V306.363H548.144V293.637Z" fill="white"/>
<path d="M560.87 293.637H548.144V306.363H560.87V293.637Z" fill="white"/>
<path d="M64.5811 306.363H51.8558V319.088H64.5811V306.363Z" fill="white"/>
<path d="M90.0318 306.363H77.3065V319.088H90.0318V306.363Z" fill="white"/>
<path d="M166.384 306.363H153.659V319.088H166.384V306.363Z" fill="white"/>
<path d="M217.285 306.363H204.56V319.088H217.285V306.363Z" fill="white"/>
<path d="M230.011 306.363H217.285V319.088H230.011V306.363Z" fill="white"/>
<path d="M255.461 306.363H242.736V319.088H255.461V306.363Z" fill="white"/>
<path d="M268.187 306.363H255.461V319.088H268.187V306.363Z" fill="white"/>
<path d="M280.912 306.363H268.187V319.088H280.912V306.363Z" fill="white"/>
<path d="M293.637 306.363H280.912V319.088H293.637V306.363Z" fill="white"/>
<path d="M306.363 306.363H293.637V319.088H306.363V306.363Z" fill="white"/>
<path d="M319.088 306.363H306.363V319.088H319.088V306.363Z" fill="white"/>
<path d="M331.813 306.363H319.088V319.088H331.813V306.363Z" fill="white"/>
<path d="M357.264 306.363H344.539V319.088H357.264V306.363Z" fill="white"/>
<path d="M382.715 306.363H369.989V319.088H382.715V306.363Z" fill="white"/>
<path d="M408.165 306.363H395.44V319.088H408.165V306.363Z" fill="white"/>
<path d="M459.067 306.363H446.341V319.088H459.067V306.363Z" fill="white"/>
<path d="M484.517 306.363H471.792V319.088H484.517V306.363Z" fill="white"/>
<path d="M548.144 306.363H535.419V319.088H548.144V306.363Z" fill="white"/>
<path d="M560.87 306.363H548.144V319.088H560.87V306.363Z" fill="white"/>
<path d="M64.5811 319.088H51.8558V331.813H64.5811V319.088Z" fill="white"/>
<path d="M102.757 319.088H90.0319V331.813H102.757V319.088Z" fill="white"/>
<path d="M115.483 319.088H102.757V331.813H115.483V319.088Z" fill="white"/>
<path d="M128.208 319.088H115.483V331.813H128.208V319.088Z" fill="white"/>
<path d="M153.659 319.088H140.933V331.813H153.659V319.088Z" fill="white"/>
<path d="M166.384 319.088H153.659V331.813H166.384V319.088Z" fill="white"/>
<path d="M242.736 319.088H230.011V331.813H242.736V319.088Z" fill="white"/>
<path d="M255.461 319.088H242.736V331.813H255.461V319.088Z" fill="white"/>
<path d="M268.187 319.088H255.461V331.813H268.187V319.088Z" fill="white"/>
<path d="M306.363 319.088H293.637V331.813H306.363V319.088Z" fill="white"/>
<path d="M331.813 319.088H319.088V331.813H331.813V319.088Z" fill="white"/>
<path d="M357.264 319.088H344.539V331.813H357.264V319.088Z" fill="white"/>
<path d="M408.165 319.088H395.44V331.813H408.165V319.088Z" fill="white"/>
<path d="M446.342 319.088H433.616V331.813H446.342V319.088Z" fill="white"/>
<path d="M459.067 319.088H446.341V331.813H459.067V319.088Z" fill="white"/>
<path d="M471.792 319.088H459.067V331.813H471.792V319.088Z" fill="white"/>
<path d="M484.517 319.088H471.792V331.813H484.517V319.088Z" fill="white"/>
<path d="M497.243 319.088H484.518V331.813H497.243V319.088Z" fill="white"/>
<path d="M509.968 319.088H497.243V331.813H509.968V319.088Z" fill="white"/>
<path d="M535.419 319.088H522.693V331.813H535.419V319.088Z" fill="white"/>
<path d="M548.144 319.088H535.419V331.813H548.144V319.088Z" fill="white"/>
<path d="M64.5811 331.813H51.8558V344.539H64.5811V331.813Z" fill="white"/>
<path d="M115.483 331.813H102.757V344.539H115.483V331.813Z" fill="white"/>
<path d="M153.659 331.813H140.933V344.539H153.659V331.813Z" fill="white"/>
<path d="M179.109 331.813H166.384V344.539H179.109V331.813Z" fill="white"/>
<path d="M191.835 331.813H179.109V344.539H191.835V331.813Z" fill="white"/>
<path d="M204.56 331.813H191.835V344.539H204.56V331.813Z" fill="white"/>
<path d="M230.011 331.813H217.285V344.539H230.011V331.813Z" fill="white"/>
<path d="M242.736 331.813H230.011V344.539H242.736V331.813Z" fill="white"/>
<path d="M255.461 331.813H242.736V344.539H255.461V331.813Z" fill="white"/>
<path d="M268.187 331.813H255.461V344.539H268.187V331.813Z" fill="white"/>
<path d="M331.813 331.813H319.088V344.539H331.813V331.813Z" fill="white"/>
<path d="M357.264 331.813H344.539V344.539H357.264V331.813Z" fill="white"/>
<path d="M369.989 331.813H357.264V344.539H369.989V331.813Z" fill="white"/>
<path d="M395.44 331.813H382.715V344.539H395.44V331.813Z" fill="white"/>
<path d="M446.342 331.813H433.616V344.539H446.342V331.813Z" fill="white"/>
<path d="M484.517 331.813H471.792V344.539H484.517V331.813Z" fill="white"/>
<path d="M509.968 331.813H497.243V344.539H509.968V331.813Z" fill="white"/>
<path d="M535.419 331.813H522.693V344.539H535.419V331.813Z" fill="white"/>
<path d="M560.87 331.813H548.144V344.539H560.87V331.813Z" fill="white"/>
<path d="M64.5811 344.539H51.8558V357.264H64.5811V344.539Z" fill="white"/>
<path d="M77.3065 344.539H64.5811V357.264H77.3065V344.539Z" fill="white"/>
<path d="M90.0318 344.539H77.3065V357.264H90.0318V344.539Z" fill="white"/>
<path d="M115.483 344.539H102.757V357.264H115.483V344.539Z" fill="white"/>
<path d="M128.208 344.539H115.483V357.264H128.208V344.539Z" fill="white"/>
<path d="M140.933 344.539H128.208V357.264H140.933V344.539Z" fill="white"/>
<path d="M166.384 344.539H153.659V357.264H166.384V344.539Z" fill="white"/>
<path d="M179.109 344.539H166.384V357.264H179.109V344.539Z" fill="white"/>
<path d="M191.835 344.539H179.109V357.264H191.835V344.539Z" fill="white"/>
<path d="M230.011 344.539H217.285V357.264H230.011V344.539Z" fill="white"/>
<path d="M280.912 344.539H268.187V357.264H280.912V344.539Z" fill="white"/>
<path d="M293.637 344.539H280.912V357.264H293.637V344.539Z" fill="white"/>
<path d="M319.088 344.539H306.363V357.264H319.088V344.539Z" fill="white"/>
<path d="M331.813 344.539H319.088V357.264H331.813V344.539Z" fill="white"/>
<path d="M357.264 344.539H344.539V357.264H357.264V344.539Z" fill="white"/>
<path d="M369.989 344.539H357.264V357.264H369.989V344.539Z" fill="white"/>
<path d="M408.165 344.539H395.44V357.264H408.165V344.539Z" fill="white"/>
<path d="M420.891 344.539H408.165V357.264H420.891V344.539Z" fill="white"/>
<path d="M459.067 344.539H446.341V357.264H459.067V344.539Z" fill="white"/>
<path d="M471.792 344.539H459.067V357.264H471.792V344.539Z" fill="white"/>
<path d="M484.517 344.539H471.792V357.264H484.517V344.539Z" fill="white"/>
<path d="M497.243 344.539H484.518V357.264H497.243V344.539Z" fill="white"/>
<path d="M560.87 344.539H548.144V357.264H560.87V344.539Z" fill="white"/>
<path d="M64.5811 357.264H51.8558V369.989H64.5811V357.264Z" fill="white"/>
<path d="M140.933 357.264H128.208V369.989H140.933V357.264Z" fill="white"/>
<path d="M153.659 357.264H140.933V369.989H153.659V357.264Z" fill="white"/>
<path d="M166.384 357.264H153.659V369.989H166.384V357.264Z" fill="white"/>
<path d="M255.461 357.264H242.736V369.989H255.461V357.264Z" fill="white"/>
<path d="M293.637 357.264H280.912V369.989H293.637V357.264Z" fill="white"/>
<path d="M306.363 357.264H293.637V369.989H306.363V357.264Z" fill="white"/>
<path d="M357.264 357.264H344.539V369.989H357.264V357.264Z" fill="white"/>
<path d="M408.165 357.264H395.44V369.989H408.165V357.264Z" fill="white"/>
<path d="M420.891 357.264H408.165V369.989H420.891V357.264Z" fill="white"/>
<path d="M446.342 357.264H433.616V369.989H446.342V357.264Z" fill="white"/>
<path d="M471.792 357.264H459.067V369.989H471.792V357.264Z" fill="white"/>
<path d="M522.693 357.264H509.968V369.989H522.693V357.264Z" fill="white"/>
<path d="M548.144 357.264H535.419V369.989H548.144V357.264Z" fill="white"/>
<path d="M51.8558 369.989H39.1304V382.715H51.8558V369.989Z" fill="white"/>
<path d="M64.5811 369.989H51.8558V382.715H64.5811V369.989Z" fill="white"/>
<path d="M90.0318 369.989H77.3065V382.715H90.0318V369.989Z" fill="white"/>
<path d="M102.757 369.989H90.0319V382.715H102.757V369.989Z" fill="white"/>
<path d="M128.208 369.989H115.483V382.715H128.208V369.989Z" fill="white"/>
<path d="M153.659 369.989H140.933V382.715H153.659V369.989Z" fill="white"/>
<path d="M166.384 369.989H153.659V382.715H166.384V369.989Z" fill="white"/>
<path d="M179.109 369.989H166.384V382.715H179.109V369.989Z" fill="white"/>
<path d="M217.285 369.989H204.56V382.715H217.285V369.989Z" fill="white"/>
<path d="M242.736 369.989H230.011V382.715H242.736V369.989Z" fill="white"/>
<path d="M255.461 369.989H242.736V382.715H255.461V369.989Z" fill="white"/>
<path d="M268.187 369.989H255.461V382.715H268.187V369.989Z" fill="white"/>
<path d="M280.912 369.989H268.187V382.715H280.912V369.989Z" fill="white"/>
<path d="M344.539 369.989H331.813V382.715H344.539V369.989Z" fill="white"/>
<path d="M369.989 369.989H357.264V382.715H369.989V369.989Z" fill="white"/>
<path d="M420.891 369.989H408.165V382.715H420.891V369.989Z" fill="white"/>
<path d="M459.067 369.989H446.341V382.715H459.067V369.989Z" fill="white"/>
<path d="M471.792 369.989H459.067V382.715H471.792V369.989Z" fill="white"/>
<path d="M497.243 369.989H484.518V382.715H497.243V369.989Z" fill="white"/>
<path d="M509.968 369.989H497.243V382.715H509.968V369.989Z" fill="white"/>
<path d="M548.144 369.989H535.419V382.715H548.144V369.989Z" fill="white"/>
<path d="M560.87 369.989H548.144V382.715H560.87V369.989Z" fill="white"/>
<path d="M77.3065 382.715H64.5811V395.44H77.3065V382.715Z" fill="white"/>
<path d="M102.757 382.715H90.0319V395.44H102.757V382.715Z" fill="white"/>
<path d="M115.483 382.715H102.757V395.44H115.483V382.715Z" fill="white"/>
<path d="M140.933 382.715H128.208V395.44H140.933V382.715Z" fill="white"/>
<path d="M153.659 382.715H140.933V395.44H153.659V382.715Z" fill="white"/>
<path d="M166.384 382.715H153.659V395.44H166.384V382.715Z" fill="white"/>
<path d="M179.109 382.715H166.384V395.44H179.109V382.715Z" fill="white"/>
<path d="M268.187 382.715H255.461V395.44H268.187V382.715Z" fill="white"/>
<path d="M306.363 382.715H293.637V395.44H306.363V382.715Z" fill="white"/>
<path d="M357.264 382.715H344.539V395.44H357.264V382.715Z" fill="white"/>
<path d="M369.989 382.715H357.264V395.44H369.989V382.715Z" fill="white"/>
<path d="M382.715 382.715H369.989V395.44H382.715V382.715Z" fill="white"/>
<path d="M395.44 382.715H382.715V395.44H395.44V382.715Z" fill="white"/>
<path d="M420.891 382.715H408.165V395.44H420.891V382.715Z" fill="white"/>
<path d="M433.616 382.715H420.891V395.44H433.616V382.715Z" fill="white"/>
<path d="M459.067 382.715H446.341V395.44H459.067V382.715Z" fill="white"/>
<path d="M471.792 382.715H459.067V395.44H471.792V382.715Z" fill="white"/>
<path d="M484.517 382.715H471.792V395.44H484.517V382.715Z" fill="white"/>
<path d="M509.968 382.715H497.243V395.44H509.968V382.715Z" fill="white"/>
<path d="M51.8558 395.44H39.1304V408.165H51.8558V395.44Z" fill="white"/>
<path d="M102.757 395.44H90.0319V408.165H102.757V395.44Z" fill="white"/>
<path d="M128.208 395.44H115.483V408.165H128.208V395.44Z" fill="white"/>
<path d="M179.109 395.44H166.384V408.165H179.109V395.44Z" fill="white"/>
<path d="M191.835 395.44H179.109V408.165H191.835V395.44Z" fill="white"/>
<path d="M217.285 395.44H204.56V408.165H217.285V395.44Z" fill="white"/>
<path d="M242.736 395.44H230.011V408.165H242.736V395.44Z" fill="white"/>
<path d="M382.715 395.44H369.989V408.165H382.715V395.44Z" fill="white"/>
<path d="M395.44 395.44H382.715V408.165H395.44V395.44Z" fill="white"/>
<path d="M420.891 395.44H408.165V408.165H420.891V395.44Z" fill="white"/>
<path d="M433.616 395.44H420.891V408.165H433.616V395.44Z" fill="white"/>
<path d="M459.067 395.44H446.341V408.165H459.067V395.44Z" fill="white"/>
<path d="M471.792 395.44H459.067V408.165H471.792V395.44Z" fill="white"/>
<path d="M77.3065 408.165H64.5811V420.891H77.3065V408.165Z" fill="white"/>
<path d="M90.0318 408.165H77.3065V420.891H90.0318V408.165Z" fill="white"/>
<path d="M115.483 408.165H102.757V420.891H115.483V408.165Z" fill="white"/>
<path d="M179.109 408.165H166.384V420.891H179.109V408.165Z" fill="white"/>
<path d="M230.011 408.165H217.285V420.891H230.011V408.165Z" fill="white"/>
<path d="M255.461 408.165H242.736V420.891H255.461V408.165Z" fill="white"/>
<path d="M293.637 408.165H280.912V420.891H293.637V408.165Z" fill="white"/>
<path d="M306.363 408.165H293.637V420.891H306.363V408.165Z" fill="white"/>
<path d="M369.989 408.165H357.264V420.891H369.989V408.165Z" fill="white"/>
<path d="M382.715 408.165H369.989V420.891H382.715V408.165Z" fill="white"/>
<path d="M395.44 408.165H382.715V420.891H395.44V408.165Z" fill="white"/>
<path d="M408.165 408.165H395.44V420.891H408.165V408.165Z" fill="white"/>
<path d="M420.891 408.165H408.165V420.891H420.891V408.165Z" fill="white"/>
<path d="M484.517 408.165H471.792V420.891H484.517V408.165Z" fill="white"/>
<path d="M497.243 408.165H484.518V420.891H497.243V408.165Z" fill="white"/>
<path d="M522.693 408.165H509.968V420.891H522.693V408.165Z" fill="white"/>
<path d="M535.419 408.165H522.693V420.891H535.419V408.165Z" fill="white"/>
<path d="M560.87 408.165H548.144V420.891H560.87V408.165Z" fill="white"/>
<path d="M51.8558 420.891H39.1304V433.616H51.8558V420.891Z" fill="white"/>
<path d="M77.3065 420.891H64.5811V433.616H77.3065V420.891Z" fill="white"/>
<path d="M90.0318 420.891H77.3065V433.616H90.0318V420.891Z" fill="white"/>
<path d="M102.757 420.891H90.0319V433.616H102.757V420.891Z" fill="white"/>
<path d="M115.483 420.891H102.757V433.616H115.483V420.891Z" fill="white"/>
<path d="M128.208 420.891H115.483V433.616H128.208V420.891Z" fill="white"/>
<path d="M140.933 420.891H128.208V433.616H140.933V420.891Z" fill="white"/>
<path d="M191.835 420.891H179.109V433.616H191.835V420.891Z" fill="white"/>
<path d="M204.56 420.891H191.835V433.616H204.56V420.891Z" fill="white"/>
<path d="M230.011 420.891H217.285V433.616H230.011V420.891Z" fill="white"/>
<path d="M242.736 420.891H230.011V433.616H242.736V420.891Z" fill="white"/>
<path d="M255.461 420.891H242.736V433.616H255.461V420.891Z" fill="white"/>
<path d="M280.912 420.891H268.187V433.616H280.912V420.891Z" fill="white"/>
<path d="M331.813 420.891H319.088V433.616H331.813V420.891Z" fill="white"/>
<path d="M382.715 420.891H369.989V433.616H382.715V420.891Z" fill="white"/>
<path d="M395.44 420.891H382.715V433.616H395.44V420.891Z" fill="white"/>
<path d="M408.165 420.891H395.44V433.616H408.165V420.891Z" fill="white"/>
<path d="M420.891 420.891H408.165V433.616H420.891V420.891Z" fill="white"/>
<path d="M497.243 420.891H484.518V433.616H497.243V420.891Z" fill="white"/>
<path d="M522.693 420.891H509.968V433.616H522.693V420.891Z" fill="white"/>
<path d="M548.144 420.891H535.419V433.616H548.144V420.891Z" fill="white"/>
<path d="M560.87 420.891H548.144V433.616H560.87V420.891Z" fill="white"/>
<path d="M77.3065 433.616H64.5811V446.341H77.3065V433.616Z" fill="white"/>
<path d="M90.0318 433.616H77.3065V446.341H90.0318V433.616Z" fill="white"/>
<path d="M140.933 433.616H128.208V446.341H140.933V433.616Z" fill="white"/>
<path d="M153.659 433.616H140.933V446.341H153.659V433.616Z" fill="white"/>
<path d="M166.384 433.616H153.659V446.341H166.384V433.616Z" fill="white"/>
<path d="M204.56 433.616H191.835V446.341H204.56V433.616Z" fill="white"/>
<path d="M242.736 433.616H230.011V446.341H242.736V433.616Z" fill="white"/>
<path d="M255.461 433.616H242.736V446.341H255.461V433.616Z" fill="white"/>
<path d="M344.539 433.616H331.813V446.341H344.539V433.616Z" fill="white"/>
<path d="M420.891 433.616H408.165V446.341H420.891V433.616Z" fill="white"/>
<path d="M433.616 433.616H420.891V446.341H433.616V433.616Z" fill="white"/>
<path d="M446.342 433.616H433.616V446.341H446.342V433.616Z" fill="white"/>
<path d="M471.792 433.616H459.067V446.341H471.792V433.616Z" fill="white"/>
<path d="M509.968 433.616H497.243V446.341H509.968V433.616Z" fill="white"/>
<path d="M522.693 433.616H509.968V446.341H522.693V433.616Z" fill="white"/>
<path d="M560.87 433.616H548.144V446.341H560.87V433.616Z" fill="white"/>
<path d="M51.8558 446.341H39.1304V459.067H51.8558V446.341Z" fill="white"/>
<path d="M77.3065 446.341H64.5811V459.067H77.3065V446.341Z" fill="white"/>
<path d="M90.0318 446.341H77.3065V459.067H90.0318V446.341Z" fill="white"/>
<path d="M102.757 446.341H90.0319V459.067H102.757V446.341Z" fill="white"/>
<path d="M115.483 446.341H102.757V459.067H115.483V446.341Z" fill="white"/>
<path d="M128.208 446.341H115.483V459.067H128.208V446.341Z" fill="white"/>
<path d="M153.659 446.341H140.933V459.067H153.659V446.341Z" fill="white"/>
<path d="M166.384 446.341H153.659V459.067H166.384V446.341Z" fill="white"/>
<path d="M217.285 446.341H204.56V459.067H217.285V446.341Z" fill="white"/>
<path d="M242.736 446.341H230.011V459.067H242.736V446.341Z" fill="white"/>
<path d="M268.187 446.341H255.461V459.067H268.187V446.341Z" fill="white"/>
<path d="M306.363 446.341H293.637V459.067H306.363V446.341Z" fill="white"/>
<path d="M319.088 446.341H306.363V459.067H319.088V446.341Z" fill="white"/>
<path d="M331.813 446.341H319.088V459.067H331.813V446.341Z" fill="white"/>
<path d="M344.539 446.341H331.813V459.067H344.539V446.341Z" fill="white"/>
<path d="M357.264 446.341H344.539V459.067H357.264V446.341Z" fill="white"/>
<path d="M369.989 446.341H357.264V459.067H369.989V446.341Z" fill="white"/>
<path d="M382.715 446.341H369.989V459.067H382.715V446.341Z" fill="white"/>
<path d="M395.44 446.341H382.715V459.067H395.44V446.341Z" fill="white"/>
<path d="M408.165 446.341H395.44V459.067H408.165V446.341Z" fill="white"/>
<path d="M459.067 446.341H446.341V459.067H459.067V446.341Z" fill="white"/>
<path d="M471.792 446.341H459.067V459.067H471.792V446.341Z" fill="white"/>
<path d="M484.517 446.341H471.792V459.067H484.517V446.341Z" fill="white"/>
<path d="M497.243 446.341H484.518V459.067H497.243V446.341Z" fill="white"/>
<path d="M509.968 446.341H497.243V459.067H509.968V446.341Z" fill="white"/>
<path d="M535.419 446.341H522.693V459.067H535.419V446.341Z" fill="white"/>
<path d="M548.144 446.341H535.419V459.067H548.144V446.341Z" fill="white"/>
<path d="M560.87 446.341H548.144V459.067H560.87V446.341Z" fill="white"/>
<path d="M153.659 459.067H140.933V471.792H153.659V459.067Z" fill="white"/>
<path d="M166.384 459.067H153.659V471.792H166.384V459.067Z" fill="white"/>
<path d="M179.109 459.067H166.384V471.792H179.109V459.067Z" fill="white"/>
<path d="M204.56 459.067H191.835V471.792H204.56V459.067Z" fill="white"/>
<path d="M217.285 459.067H204.56V471.792H217.285V459.067Z" fill="white"/>
<path d="M255.461 459.067H242.736V471.792H255.461V459.067Z" fill="white"/>
<path d="M293.637 459.067H280.912V471.792H293.637V459.067Z" fill="white"/>
<path d="M306.363 459.067H293.637V471.792H306.363V459.067Z" fill="white"/>
<path d="M319.088 459.067H306.363V471.792H319.088V459.067Z" fill="white"/>
<path d="M331.813 459.067H319.088V471.792H331.813V459.067Z" fill="white"/>
<path d="M357.264 459.067H344.539V471.792H357.264V459.067Z" fill="white"/>
<path d="M446.342 459.067H433.616V471.792H446.342V459.067Z" fill="white"/>
<path d="M459.067 459.067H446.341V471.792H459.067V459.067Z" fill="white"/>
<path d="M509.968 459.067H497.243V471.792H509.968V459.067Z" fill="white"/>
<path d="M522.693 459.067H509.968V471.792H522.693V459.067Z" fill="white"/>
<path d="M535.419 459.067H522.693V471.792H535.419V459.067Z" fill="white"/>
<path d="M548.144 459.067H535.419V471.792H548.144V459.067Z" fill="white"/>
<path d="M560.87 459.067H548.144V471.792H560.87V459.067Z" fill="white"/>
<path d="M153.659 471.792H140.933V484.517H153.659V471.792Z" fill="white"/>
<path d="M179.109 471.792H166.384V484.517H179.109V471.792Z" fill="white"/>
<path d="M191.835 471.792H179.109V484.517H191.835V471.792Z" fill="white"/>
<path d="M255.461 471.792H242.736V484.517H255.461V471.792Z" fill="white"/>
<path d="M268.187 471.792H255.461V484.517H268.187V471.792Z" fill="white"/>
<path d="M280.912 471.792H268.187V484.517H280.912V471.792Z" fill="white"/>
<path d="M306.363 471.792H293.637V484.517H306.363V471.792Z" fill="white"/>
<path d="M408.165 471.792H395.44V484.517H408.165V471.792Z" fill="white"/>
<path d="M420.891 471.792H408.165V484.517H420.891V471.792Z" fill="white"/>
<path d="M459.067 471.792H446.341V484.517H459.067V471.792Z" fill="white"/>
<path d="M484.517 471.792H471.792V484.517H484.517V471.792Z" fill="white"/>
<path d="M509.968 471.792H497.243V484.517H509.968V471.792Z" fill="white"/>
<path d="M535.419 471.792H522.693V484.517H535.419V471.792Z" fill="white"/>
<path d="M548.144 471.792H535.419V484.517H548.144V471.792Z" fill="white"/>
<path d="M153.659 484.518H140.933V497.243H153.659V484.518Z" fill="white"/>
<path d="M191.835 484.518H179.109V497.243H191.835V484.518Z" fill="white"/>
<path d="M204.56 484.518H191.835V497.243H204.56V484.518Z" fill="white"/>
<path d="M217.285 484.518H204.56V497.243H217.285V484.518Z" fill="white"/>
<path d="M230.011 484.518H217.285V497.243H230.011V484.518Z" fill="white"/>
<path d="M255.461 484.518H242.736V497.243H255.461V484.518Z" fill="white"/>
<path d="M268.187 484.518H255.461V497.243H268.187V484.518Z" fill="white"/>
<path d="M293.637 484.518H280.912V497.243H293.637V484.518Z" fill="white"/>
<path d="M306.363 484.518H293.637V497.243H306.363V484.518Z" fill="white"/>
<path d="M382.715 484.518H369.989V497.243H382.715V484.518Z" fill="white"/>
<path d="M395.44 484.518H382.715V497.243H395.44V484.518Z" fill="white"/>
<path d="M408.165 484.518H395.44V497.243H408.165V484.518Z" fill="white"/>
<path d="M459.067 484.518H446.341V497.243H459.067V484.518Z" fill="white"/>
<path d="M509.968 484.518H497.243V497.243H509.968V484.518Z" fill="white"/>
<path d="M535.419 484.518H522.693V497.243H535.419V484.518Z" fill="white"/>
<path d="M548.144 484.518H535.419V497.243H548.144V484.518Z" fill="white"/>
<path d="M166.384 497.243H153.659V509.968H166.384V497.243Z" fill="white"/>
<path d="M230.011 497.243H217.285V509.968H230.011V497.243Z" fill="white"/>
<path d="M242.736 497.243H230.011V509.968H242.736V497.243Z" fill="white"/>
<path d="M268.187 497.243H255.461V509.968H268.187V497.243Z" fill="white"/>
<path d="M293.637 497.243H280.912V509.968H293.637V497.243Z" fill="white"/>
<path d="M306.363 497.243H293.637V509.968H306.363V497.243Z" fill="white"/>
<path d="M331.813 497.243H319.088V509.968H331.813V497.243Z" fill="white"/>
<path d="M357.264 497.243H344.539V509.968H357.264V497.243Z" fill="white"/>
<path d="M395.44 497.243H382.715V509.968H395.44V497.243Z" fill="white"/>
<path d="M408.165 497.243H395.44V509.968H408.165V497.243Z" fill="white"/>
<path d="M433.616 497.243H420.891V509.968H433.616V497.243Z" fill="white"/>
<path d="M459.067 497.243H446.341V509.968H459.067V497.243Z" fill="white"/>
<path d="M471.792 497.243H459.067V509.968H471.792V497.243Z" fill="white"/>
<path d="M484.517 497.243H471.792V509.968H484.517V497.243Z" fill="white"/>
<path d="M497.243 497.243H484.518V509.968H497.243V497.243Z" fill="white"/>
<path d="M509.968 497.243H497.243V509.968H509.968V497.243Z" fill="white"/>
<path d="M548.144 497.243H535.419V509.968H548.144V497.243Z" fill="white"/>
<path d="M153.659 509.968H140.933V522.693H153.659V509.968Z" fill="white"/>
<path d="M179.109 509.968H166.384V522.693H179.109V509.968Z" fill="white"/>
<path d="M230.011 509.968H217.285V522.693H230.011V509.968Z" fill="white"/>
<path d="M268.187 509.968H255.461V522.693H268.187V509.968Z" fill="white"/>
<path d="M306.363 509.968H293.637V522.693H306.363V509.968Z" fill="white"/>
<path d="M357.264 509.968H344.539V522.693H357.264V509.968Z" fill="white"/>
<path d="M369.989 509.968H357.264V522.693H369.989V509.968Z" fill="white"/>
<path d="M420.891 509.968H408.165V522.693H420.891V509.968Z" fill="white"/>
<path d="M446.342 509.968H433.616V522.693H446.342V509.968Z" fill="white"/>
<path d="M471.792 509.968H459.067V522.693H471.792V509.968Z" fill="white"/>
<path d="M484.517 509.968H471.792V522.693H484.517V509.968Z" fill="white"/>
<path d="M509.968 509.968H497.243V522.693H509.968V509.968Z" fill="white"/>
<path d="M522.693 509.968H509.968V522.693H522.693V509.968Z" fill="white"/>
<path d="M535.419 509.968H522.693V522.693H535.419V509.968Z" fill="white"/>
<path d="M548.144 509.968H535.419V522.693H548.144V509.968Z" fill="white"/>
<path d="M560.87 509.968H548.144V522.693H560.87V509.968Z" fill="white"/>
<path d="M217.285 522.693H204.56V535.419H217.285V522.693Z" fill="white"/>
<path d="M280.912 522.693H268.187V535.419H280.912V522.693Z" fill="white"/>
<path d="M293.637 522.693H280.912V535.419H293.637V522.693Z" fill="white"/>
<path d="M319.088 522.693H306.363V535.419H319.088V522.693Z" fill="white"/>
<path d="M331.813 522.693H319.088V535.419H331.813V522.693Z" fill="white"/>
<path d="M344.539 522.693H331.813V535.419H344.539V522.693Z" fill="white"/>
<path d="M369.989 522.693H357.264V535.419H369.989V522.693Z" fill="white"/>
<path d="M382.715 522.693H369.989V535.419H382.715V522.693Z" fill="white"/>
<path d="M420.891 522.693H408.165V535.419H420.891V522.693Z" fill="white"/>
<path d="M433.616 522.693H420.891V535.419H433.616V522.693Z" fill="white"/>
<path d="M459.067 522.693H446.341V535.419H459.067V522.693Z" fill="white"/>
<path d="M509.968 522.693H497.243V535.419H509.968V522.693Z" fill="white"/>
<path d="M522.693 522.693H509.968V535.419H522.693V522.693Z" fill="white"/>
<path d="M548.144 522.693H535.419V535.419H548.144V522.693Z" fill="white"/>
<path d="M560.87 522.693H548.144V535.419H560.87V522.693Z" fill="white"/>
<path d="M153.659 535.419H140.933V548.144H153.659V535.419Z" fill="white"/>
<path d="M179.109 535.419H166.384V548.144H179.109V535.419Z" fill="white"/>
<path d="M191.835 535.419H179.109V548.144H191.835V535.419Z" fill="white"/>
<path d="M255.461 535.419H242.736V548.144H255.461V535.419Z" fill="white"/>
<path d="M280.912 535.419H268.187V548.144H280.912V535.419Z" fill="white"/>
<path d="M293.637 535.419H280.912V548.144H293.637V535.419Z" fill="white"/>
<path d="M319.088 535.419H306.363V548.144H319.088V535.419Z" fill="white"/>
<path d="M357.264 535.419H344.539V548.144H357.264V535.419Z" fill="white"/>
<path d="M369.989 535.419H357.264V548.144H369.989V535.419Z" fill="white"/>
<path d="M382.715 535.419H369.989V548.144H382.715V535.419Z" fill="white"/>
<path d="M408.165 535.419H395.44V548.144H408.165V535.419Z" fill="white"/>
<path d="M420.891 535.419H408.165V548.144H420.891V535.419Z" fill="white"/>
<path d="M433.616 535.419H420.891V548.144H433.616V535.419Z" fill="white"/>
<path d="M459.067 535.419H446.341V548.144H459.067V535.419Z" fill="white"/>
<path d="M471.792 535.419H459.067V548.144H471.792V535.419Z" fill="white"/>
<path d="M497.243 535.419H484.518V548.144H497.243V535.419Z" fill="white"/>
<path d="M548.144 535.419H535.419V548.144H548.144V535.419Z" fill="white"/>
<path d="M230.011 548.144H217.285V560.87H230.011V548.144Z" fill="white"/>
<path d="M255.461 548.144H242.736V560.87H255.461V548.144Z" fill="white"/>
<path d="M280.912 548.144H268.187V560.87H280.912V548.144Z" fill="white"/>
<path d="M293.637 548.144H280.912V560.87H293.637V548.144Z" fill="white"/>
<path d="M306.363 548.144H293.637V560.87H306.363V548.144Z" fill="white"/>
<path d="M331.813 548.144H319.088V560.87H331.813V548.144Z" fill="white"/>
<path d="M344.539 548.144H331.813V560.87H344.539V548.144Z" fill="white"/>
<path d="M357.264 548.144H344.539V560.87H357.264V548.144Z" fill="white"/>
<path d="M395.44 548.144H382.715V560.87H395.44V548.144Z" fill="white"/>
<path d="M408.165 548.144H395.44V560.87H408.165V548.144Z" fill="white"/>
<path d="M420.891 548.144H408.165V560.87H420.891V548.144Z" fill="white"/>
<path d="M459.067 548.144H446.341V560.87H459.067V548.144Z" fill="white"/>
<path d="M471.792 548.144H459.067V560.87H471.792V548.144Z" fill="white"/>
<path d="M484.517 548.144H471.792V560.87H484.517V548.144Z" fill="white"/>
<path d="M497.243 548.144H484.518V560.87H497.243V548.144Z" fill="white"/>
<path d="M509.968 548.144H497.243V560.87H509.968V548.144Z" fill="white"/>
<path d="M522.693 548.144H509.968V560.87H522.693V548.144Z" fill="white"/>
<path d="M548.144 548.144H535.419V560.87H548.144V548.144Z" fill="white"/>
</mask>
<g mask="url(#mask1_1_6)">
<path d="M600 0H0V600H600V0Z" fill="black"/>
</g>
<mask id="mask2_1_6" style="mask-type:luminance" maskUnits="userSpaceOnUse" x="39" y="39" width="90" height="90">
<path fill-rule="evenodd" clip-rule="evenodd" d="M39.1304 39.1304V128.208H128.208V39.1304H39.1304ZM51.8558 51.8558H115.483V115.483H51.8558V51.8558Z" fill="white"/>
</mask>
<g mask="url(#mask2_1_6)">
<path d="M128.208 39.1304H39.1304V128.208H128.208V39.1304Z" fill="black"/>
</g>
<mask id="mask3_1_6" style="mask-type:luminance" maskUnits="userSpaceOnUse" x="64" y="64" width="39" height="39">
<path d="M102.757 64.5811H64.5811V102.757H102.757V64.5811Z" fill="white"/>
</mask>
<g mask="url(#mask3_1_6)">
<path d="M102.757 64.5811H64.5811V102.757H102.757V64.5811Z" fill="black"/>
</g>
<mask id="mask4_1_6" style="mask-type:luminance" maskUnits="userSpaceOnUse" x="471" y="39" width="90" height="90">
<path fill-rule="evenodd" clip-rule="evenodd" d="M560.87 39.1304L471.792 39.1304V128.208H560.87V39.1304ZM548.144 51.8558V115.483H484.517V51.8558L548.144 51.8558Z" fill="white"/>
</mask>
<g mask="url(#mask4_1_6)">
<path d="M560.87 39.1304H471.792V128.208H560.87V39.1304Z" fill="black"/>
</g>
<mask id="mask5_1_6" style="mask-type:luminance" maskUnits="userSpaceOnUse" x="497" y="64" width="39" height="39">
<path d="M535.419 102.757V64.5811H497.243V102.757H535.419Z" fill="white"/>
</mask>
<g mask="url(#mask5_1_6)">
<path d="M535.419 64.5811H497.243V102.757H535.419V64.5811Z" fill="black"/>
</g>
<mask id="mask6_1_6" style="mask-type:luminance" maskUnits="userSpaceOnUse" x="39" y="471" width="90" height="90">
<path fill-rule="evenodd" clip-rule="evenodd" d="M39.1304 560.87H128.208V471.792H39.1304L39.1304 560.87ZM51.8558 548.144L51.8558 484.517H115.483V548.144H51.8558Z" fill="white"/>
</mask>
<g mask="url(#mask6_1_6)">
<path d="M128.208 471.792H39.1304V560.87H128.208V471.792Z" fill="black"/>
</g>
<mask id="mask7_1_6" style="mask-type:luminance" maskUnits="userSpaceOnUse" x="64" y="497" width="39" height="39">
<path d="M64.5811 497.243V535.419H102.757V497.243H64.5811Z" fill="white"/>
</mask>
<g mask="url(#mask7_1_6)">
<path d="M102.757 497.243H64.5811V535.419H102.757V497.243Z" fill="black"/>
</g>
</g>
<defs>
<clipPath id="clip0_1_6">
<rect width="600" height="600" fill="white"/>
</clipPath>
</defs>
</svg>
